<?xml version="1.0" encoding="utf-8"?>
<!-- Generator: Adobe Illustrator 16.0.0, SVG Export Plug-In . SVG Version: 6.00 Build 0)  -->
<!DOCTYPE svg PUBLIC "-//W3C//DTD SVG 1.1//EN" "http://www.w3.org/Graphics/SVG/1.1/DTD/svg11.dtd">
<svg version="1.1" id="Layer_1" xmlns="http://www.w3.org/2000/svg" xmlns:xlink="http://www.w3.org/1999/xlink" x="0px" y="0px"
	 width="1500px" height="1000px" viewBox="0 0 1500 1000" enable-background="new 0 0 1500 1000" xml:space="preserve">
<g>
	<polygon fill="none" points="0,971.5 0,997.5 13,984.5 	"/>
	<polygon fill="none" points="0,670.5 0,696.5 13,683.5 	"/>
	<polygon fill="none" points="0,370.5 0,396.5 13,383.5 	"/>
	<path fill="none" d="M1437.747,8L1363,83v-0.5l-75-75l7.5-7.5h-15.726l7.973,8L1213,83v-0.5l-75-75l7.5-7.5h-15.726l7.973,8
		L1063,83v-0.5l-75-75l7.5-7.5h-15.726l7.973,8L913,83v-0.5l-75-75l7.5-7.5h-15.726l7.973,8L763,83v-0.5l-75-75l7.5-7.5h-16.723
		l8.97,9L613,84l74.747,75L613,234l74.747,75L613,384l74.747,75L613,534l74.747,75L613,684l74.747,75L613,834v-0.5l-75-75l75-75
		l-75-75l75-75l-75-75l75-75l-75-75l75-75v0l-75-75l75-75l-75-75l8.5-8.5h-17.723l8.97,9L463,84l74.747,75L463,234l74.747,75
		L463,384l74.747,75L463,534l74.747,75L463,684l74.747,75L463,834v-0.5l-75-75l75-75l-75-75l75-75l-75-75l75-75v0l-75-75l75-75
		l-75-75l75-75v0l-75-75l8.5-8.5h-16.726l7.973,8L313,83v0.5V84l74.747,75L313,234l74.747,75L313,384l74.747,75L313,534l74.747,75
		L313,684v-0.5l-75-75l75-75l-75-75l75-75l-75-75l75-75v0l-75-75l75-75l-75-75l8.5-8.5h-17.723l8.97,9L163,84l74.747,75L163,234
		l74.747,75L163,384l74.747,75L163,534l74.747,75L163,684l74.747,75L163,834v-0.5l-75-75l75-75l-75-75l75-75l-75-75l75-75v0l-75-75
		l75-75l-75-75l75-75v0l-75-75L96.5,0H79.774l7.973,8L13,83v-0.5l-13-13v27l13-13V84l74.747,75L13,234l74.747,75L13,384l74.747,75
		L13,534l74.747,75L13,684l74.747,75L13,834v-0.5l-13-13v27l13-13v0.5l74.747,75L13,985l12.956,13H149.5l13.5-13.5l-75-75l75-75v0.5
		l74.747,75L163,985l12.956,13H299.5l13.5-13.5l-75-75l75-75l-75-75l75-75v0.5l74.747,75L313,835l74.747,75L313,985l12.956,13H449.5
		l13.5-13.5l-75-75l75-75v0.5l74.747,75L463,985l12.956,13H599.5l13.5-13.5l-75-75l75-75v0.5l74.747,75L613,985l12.956,13H749.5
		l13.5-13.5l-75-75l75-75v0.5l74.747,75L763,985l12.956,13H899.5l13.5-13.5l-75-75l75-75v0.5l74.747,75L913,985l12.956,13H1049.5
		l13.5-13.5l-75-75l75-75v0.5l74.747,75L1063,985l12.956,13H1199.5l13.5-13.5l-75-75l75-75l-75-75l75-75v0.5l74.747,75L1213,835
		l74.747,75L1213,985l12.956,13H1349.5l13.5-13.5l-75-75l75-75v0.5l74.747,75L1363,985l12.956,13H1499.5l0.5-0.5v-26l-62-62l62-62
		v-26l-62-62l62-62v-27l-62-62l62-62v-26l-62-62l62-62v-26l-62-62l62-62v-26l-62-62l62-62v-27l-62-62l7.5-7.5h-15.726L1437.747,8z
		 M837.747,309L763,384l74.747,75L763,534l74.747,75L763,684l74.747,75L763,834v-0.5l-75-75l75-75l-75-75l75-75l-75-75l75-75v0
		l-75-75l75-75l-75-75l75-75V84l74.747,75L763,234L837.747,309z M987.747,309L913,384l74.747,75L913,534l74.747,75L913,684
		l74.747,75L913,834v-0.5l-75-75l75-75l-75-75l75-75l-75-75l75-75l-75-75l75-75v0l-75-75l75-75V84l74.747,75L913,234L987.747,309z
		 M1137.747,309L1063,384l74.747,75L1063,534l74.747,75L1063,684l74.747,75L1063,834v-0.5l-75-75l75-75l-75-75l75-75l-75-75l75-75v0
		l-75-75l75-75l-75-75l75-75V84l74.747,75L1063,234L1137.747,309z M1287.747,309L1213,384l74.747,75L1213,534l74.747,75L1213,684
		v-0.5l-75-75l75-75l-75-75l75-75l-75-75l75-75v0l-75-75l75-75V84l74.747,75L1213,234L1287.747,309z M1437.747,309L1363,384
		l74.747,75L1363,534l74.747,75L1363,684l74.747,75L1363,834v-0.5l-75-75l75-75l-75-75l75-75l-75-75l75-75l-75-75l75-75l-75-75
		l75-75V84l74.747,75L1363,234L1437.747,309z"/>
	<polygon fill="none" points="13,233.5 0,220.5 0,246.5 13,233.5 	"/>
	<polygon fill="none" points="0,520.5 0,546.5 13,533.5 	"/>
	<polygon fill="#C0392B" points="163,233.5 163,234 237.747,159 163,84 163,233.5 	"/>
	<polygon fill="#E74C3C" points="88,158.5 163,233.5 163,233.5 163,84 163,83.5 	"/>
	<polygon fill="#C0392B" points="313,383.5 313,384 387.747,309 313,234 313,383.5 	"/>
	<polygon fill="#E74C3C" points="238,308.5 313,383.5 313,383.5 313,234 313,233.5 	"/>
	<polygon fill="#E74C3C" points="313,83.5 313,83 313,0 246.5,0 238,8.5 	"/>
	<polygon fill="#C0392B" points="387.747,8 379.774,0 313,0 313,83 	"/>
	<polygon fill="#C0392B" points="463,233.5 463,234 537.747,159 463,84 463,233.5 	"/>
	<polygon fill="#E74C3C" points="388,158.5 463,233.5 463,233.5 463,84 463,83.5 	"/>
	<polygon fill="#C0392B" points="463,534 537.747,459 463,384 463,533.5 	"/>
	<polygon fill="#E74C3C" points="388,458.5 463,533.5 463,384 463,383.5 	"/>
	<polygon fill="#C0392B" points="613,383.5 613,384 687.747,309 613,234 613,383.5 	"/>
	<polygon fill="#E74C3C" points="538,308.5 613,383.5 613,383.5 613,234 613,233.5 	"/>
	<polygon fill="#C0392B" points="613,83.5 613,84 687.747,9 678.777,0 613,0 613,83.5 	"/>
	<polygon fill="#E74C3C" points="613,83.5 613,83.5 613,0 546.5,0 538,8.5 	"/>
	<polygon fill="#C0392B" points="763,84 763,233.5 763,233.5 763,234 837.747,159 	"/>
	<polygon fill="#E74C3C" points="763,84 763,83.5 688,158.5 763,233.5 763,233.5 	"/>
	<polygon fill="#C0392B" points="763,534 837.747,459 763,384 763,533.5 	"/>
	<polygon fill="#E74C3C" points="688,458.5 763,533.5 763,384 763,383.5 	"/>
	<polygon fill="#C0392B" points="613,684 687.747,609 613,534 613,683.5 	"/>
	<polygon fill="#E74C3C" points="538,608.5 613,683.5 613,534 613,533.5 	"/>
	<polygon fill="#C0392B" points="913,384 987.747,309 913,234 913,383.5 	"/>
	<polygon fill="#E74C3C" points="838,308.5 913,383.5 913,234 913,233.5 	"/>
	<polygon fill="#C0392B" points="913,684 987.747,609 913,534 913,683.5 	"/>
	<polygon fill="#E74C3C" points="838,608.5 913,683.5 913,534 913,533.5 	"/>
	<polygon fill="#C0392B" points="1063,534 1137.747,459 1063,384 1063,533.5 	"/>
	<polygon fill="#E74C3C" points="988,458.5 1063,533.5 1063,384 1063,383.5 	"/>
	<polygon fill="#C0392B" points="763,834 837.747,759 763,684 763,833.5 	"/>
	<polygon fill="#E74C3C" points="688,758.5 763,833.5 763,684 763,683.5 	"/>
	<polygon fill="#C0392B" points="913,83 987.747,8 979.774,0 913,0 913,82.5 	"/>
	<polygon fill="#E74C3C" points="913,82.5 913,0 845.5,0 838,7.5 	"/>
	<polygon fill="#C0392B" points="13,83 87.747,8 79.774,0 13,0 13,82.5 	"/>
	<polygon fill="#E74C3C" points="13,0 0,0 0,69.5 13,82.5 	"/>
	<polygon fill="#C0392B" points="13,383.5 13,384 87.747,309 13,234 13,383.5 	"/>
	<polygon fill="#E74C3C" points="13,383.5 13,234 13,233.5 0,246.5 0,370.5 13,383.5 	"/>
	<polygon fill="#C0392B" points="163,534 237.747,459 163,384 163,533.5 	"/>
	<polygon fill="#E74C3C" points="88,458.5 163,533.5 163,384 163,383.5 	"/>
	<polygon fill="#C0392B" points="313,684 387.747,609 313,534 313,683.5 	"/>
	<polygon fill="#E74C3C" points="238,608.5 313,683.5 313,534 313,533.5 	"/>
	<polygon fill="#C0392B" points="463,834 537.747,759 463,684 463,833.5 	"/>
	<polygon fill="#E74C3C" points="388,758.5 463,833.5 463,684 463,683.5 	"/>
	<polygon fill="#C0392B" points="687.747,910 613,835 613,984.5 613,985 	"/>
	<polygon fill="#E74C3C" points="613,834.5 538,909.5 613,984.5 613,835 	"/>
	<polygon fill="#C0392B" points="763,998 775.956,998 763,985 	"/>
	<polygon fill="#E74C3C" points="763,984.5 749.5,998 763,998 763,985 	"/>
	<polygon fill="#C0392B" points="987.747,910 913,835 913,984.5 913,985 	"/>
	<polygon fill="#E74C3C" points="913,834.5 838,909.5 913,984.5 913,835 	"/>
	<polygon fill="#C0392B" points="1063,834 1137.747,759 1063,684 1063,833.5 	"/>
	<polygon fill="#E74C3C" points="988,758.5 1063,833.5 1063,684 1063,683.5 	"/>
	<polygon fill="#C0392B" points="1213,684 1287.747,609 1213,534 1213,683.5 	"/>
	<polygon fill="#E74C3C" points="1138,608.5 1213,683.5 1213,534 1213,533.5 	"/>
	<polygon fill="#C0392B" points="1287.747,910 1213,835 1213,984.5 1213,985 	"/>
	<polygon fill="#E74C3C" points="1213,834.5 1138,909.5 1213,984.5 1213,835 	"/>
	<polygon fill="#C0392B" points="1063,998 1075.956,998 1063,985 	"/>
	<polygon fill="#E74C3C" points="1063,984.5 1049.5,998 1063,998 1063,985 	"/>
	<polygon fill="#C0392B" points="1363,834 1437.747,759 1363,684 1363,833.5 	"/>
	<polygon fill="#E74C3C" points="1288,758.5 1363,833.5 1363,684 1363,683.5 	"/>
	<polygon fill="#E74C3C" points="1500,971.5 1500,847.5 1438,909.5 	"/>
	<polygon fill="#C0392B" points="1363,998 1375.956,998 1363,985 	"/>
	<polygon fill="#E74C3C" points="1363,984.5 1349.5,998 1363,998 1363,985 	"/>
	<polygon fill="#C0392B" points="463,998 475.956,998 463,985 	"/>
	<polygon fill="#E74C3C" points="463,984.5 449.5,998 463,998 463,985 	"/>
	<polygon fill="#C0392B" points="387.747,910 313,835 313,984.5 313,985 	"/>
	<polygon fill="#E74C3C" points="313,834.5 238,909.5 313,984.5 313,835 	"/>
	<polygon fill="#C0392B" points="163,834 237.747,759 163,684 163,833.5 	"/>
	<polygon fill="#E74C3C" points="88,758.5 163,833.5 163,684 163,683.5 	"/>
	<polygon fill="#C0392B" points="13,684 87.747,609 13,534 13,683.5 	"/>
	<polygon fill="#E74C3C" points="13,534 13,533.5 0,546.5 0,670.5 13,683.5 	"/>
	<polygon fill="#C0392B" points="13,985 87.747,910 13,835 13,984.5 	"/>
	<polygon fill="#E74C3C" points="13,835 13,834.5 0,847.5 0,971.5 13,984.5 	"/>
	<polygon fill="#C0392B" points="163,998 175.956,998 163,985 	"/>
	<polygon fill="#E74C3C" points="163,984.5 149.5,998 163,998 163,985 	"/>
	<polygon fill="#E74C3C" points="1500,670.5 1500,546.5 1438,608.5 	"/>
	<polygon fill="#C0392B" points="1363,534 1437.747,459 1363,384 1363,533.5 	"/>
	<polygon fill="#E74C3C" points="1288,458.5 1363,533.5 1363,384 1363,383.5 	"/>
	<polygon fill="#C0392B" points="1063,84 1063,233.5 1063,233.5 1063,234 1137.747,159 	"/>
	<polygon fill="#E74C3C" points="1063,84 1063,83.5 988,158.5 1063,233.5 1063,233.5 	"/>
	<polygon fill="#C0392B" points="1213,383.5 1213,384 1287.747,309 1213,234 1213,383.5 	"/>
	<polygon fill="#E74C3C" points="1138,308.5 1213,383.5 1213,383.5 1213,234 1213,233.5 	"/>
	<polygon fill="#C0392B" points="1213,83 1287.747,8 1279.774,0 1213,0 1213,82.5 	"/>
	<polygon fill="#E74C3C" points="1213,82.5 1213,0 1145.5,0 1138,7.5 	"/>
	<polygon fill="#C0392B" points="1363,84 1363,233.5 1363,233.5 1363,234 1437.747,159 	"/>
	<polygon fill="#E74C3C" points="1363,84 1363,83.5 1288,158.5 1363,233.5 1363,233.5 	"/>
	<polygon fill="#E74C3C" points="1500,69.5 1500,0 1445.5,0 1438,7.5 	"/>
	<polygon fill="#E74C3C" points="1500,370.5 1500,246.5 1438,308.5 	"/>
	<polygon fill="#2ECC71" points="763,684 837.747,609 763,534 763,683.5 	"/>
	<polygon fill="#27AE60" points="688,608.5 763,683.5 763,534 763,533.5 	"/>
	<polygon fill="#2ECC71" points="613,534 687.747,459 613,384 613,533.5 	"/>
	<polygon fill="#27AE60" points="613,383.5 613,383.5 538,458.5 613,533.5 613,384 613,383.5 	"/>
	<polygon fill="#2ECC71" points="763,383.5 763,384 837.747,309 763,234 763,383.5 	"/>
	<polygon fill="#27AE60" points="763,233.5 763,233.5 688,308.5 763,383.5 763,234 763,233.5 	"/>
	<polygon fill="#2ECC71" points="913,534 987.747,459 913,384 913,533.5 	"/>
	<polygon fill="#27AE60" points="838,458.5 913,533.5 913,384 913,383.5 	"/>
	<polygon fill="#2ECC71" points="1063,383.5 1063,384 1137.747,309 1063,234 1063,383.5 	"/>
	<polygon fill="#27AE60" points="1063,233.5 1063,233.5 988,308.5 1063,383.5 1063,234 1063,233.5 	"/>
	<polygon fill="#2ECC71" points="913,84 913,233.5 913,233.5 913,234 987.747,159 	"/>
	<polygon fill="#27AE60" points="913,83.5 838,158.5 913,233.5 913,84 	"/>
	<polygon fill="#2ECC71" points="1063,83 1137.747,8 1129.774,0 1063,0 1063,82.5 	"/>
	<polygon fill="#27AE60" points="1063,82.5 1063,0 995.5,0 988,7.5 	"/>
	<polygon fill="#2ECC71" points="1213,84 1213,233.5 1213,233.5 1213,234 1287.747,159 	"/>
	<polygon fill="#27AE60" points="1213,83.5 1138,158.5 1213,233.5 1213,84 	"/>
	<polygon fill="#2ECC71" points="1363,384 1437.747,309 1363,234 1363,383.5 	"/>
	<polygon fill="#27AE60" points="1363,233.5 1363,233.5 1288,308.5 1363,383.5 1363,234 1363,233.5 	"/>
	<polygon fill="#2ECC71" points="1213,534 1287.747,459 1213,384 1213,533.5 	"/>
	<polygon fill="#27AE60" points="1213,383.5 1213,383.5 1138,458.5 1213,533.5 1213,384 1213,383.5 	"/>
	<polygon fill="#2ECC71" points="1063,684 1137.747,609 1063,534 1063,683.5 	"/>
	<polygon fill="#27AE60" points="988,608.5 1063,683.5 1063,534 1063,533.5 	"/>
	<polygon fill="#2ECC71" points="913,834 987.747,759 913,684 913,833.5 	"/>
	<polygon fill="#27AE60" points="838,758.5 913,833.5 913,684 913,683.5 	"/>
	<polygon fill="#2ECC71" points="613,834 687.747,759 613,684 613,833.5 	"/>
	<polygon fill="#27AE60" points="538,758.5 613,833.5 613,684 613,683.5 	"/>
	<polygon fill="#2ECC71" points="463,684 537.747,609 463,534 463,683.5 	"/>
	<polygon fill="#27AE60" points="388,608.5 463,683.5 463,534 463,533.5 	"/>
	<polygon fill="#2ECC71" points="313,534 387.747,459 313,384 313,533.5 	"/>
	<polygon fill="#27AE60" points="313,383.5 313,383.5 238,458.5 313,533.5 313,384 313,383.5 	"/>
	<polygon fill="#2ECC71" points="463,383.5 463,384 537.747,309 463,234 463,383.5 	"/>
	<polygon fill="#27AE60" points="463,233.5 463,233.5 388,308.5 463,383.5 463,234 463,233.5 	"/>
	<polygon fill="#2ECC71" points="613,233.5 613,234 687.747,159 613,84 613,233.5 	"/>
	<polygon fill="#27AE60" points="613,83.5 613,83.5 538,158.5 613,233.5 613,84 613,83.5 	"/>
	<polygon fill="#2ECC71" points="763,83 837.747,8 829.774,0 763,0 763,82.5 	"/>
	<polygon fill="#27AE60" points="763,82.5 763,0 695.5,0 688,7.5 	"/>
	<polygon fill="#2ECC71" points="387.747,760 313,685 313,834.5 313,835 	"/>
	<polygon fill="#27AE60" points="313,684.5 238,759.5 313,834.5 313,685 	"/>
	<polygon fill="#2ECC71" points="163,684 237.747,609 163,534 163,683.5 	"/>
	<polygon fill="#27AE60" points="88,608.5 163,683.5 163,534 163,533.5 	"/>
	<polygon fill="#2ECC71" points="13,834 87.747,759 13,684 13,833.5 	"/>
	<polygon fill="#27AE60" points="13,684 13,683.5 0,696.5 0,820.5 13,833.5 	"/>
	<polygon fill="#2ECC71" points="237.747,910 163,835 163,984.5 163,985 	"/>
	<polygon fill="#27AE60" points="163,834.5 88,909.5 163,984.5 163,835 	"/>
	<polygon fill="#2ECC71" points="537.747,910 463,835 463,984.5 463,985 	"/>
	<polygon fill="#27AE60" points="463,834.5 388,909.5 463,984.5 463,835 	"/>
	<polygon fill="#2ECC71" points="313,998 325.956,998 313,985 	"/>
	<polygon fill="#27AE60" points="313,984.5 299.5,998 313,998 313,985 	"/>
	<polygon fill="#2ECC71" points="13,998 25.956,998 13,985 	"/>
	<polygon fill="#27AE60" points="13,984.5 0,997.5 0,998 13,998 13,985 	"/>
	<polygon fill="#2ECC71" points="613,998 625.956,998 613,985 	"/>
	<polygon fill="#27AE60" points="613,984.5 599.5,998 613,998 613,985 	"/>
	<polygon fill="#2ECC71" points="837.747,910 763,835 763,984.5 763,985 	"/>
	<polygon fill="#27AE60" points="763,834.5 688,909.5 763,984.5 763,835 	"/>
	<polygon fill="#2ECC71" points="913,998 925.956,998 913,985 	"/>
	<polygon fill="#27AE60" points="913,984.5 899.5,998 913,998 913,985 	"/>
	<polygon fill="#2ECC71" points="1137.747,910 1063,835 1063,984.5 1063,985 	"/>
	<polygon fill="#27AE60" points="1063,834.5 988,909.5 1063,984.5 1063,835 	"/>
	<polygon fill="#2ECC71" points="1213,998 1225.956,998 1213,985 	"/>
	<polygon fill="#27AE60" points="1213,984.5 1199.5,998 1213,998 1213,985 	"/>
	<polygon fill="#2ECC71" points="1437.747,910 1363,835 1363,984.5 1363,985 	"/>
	<polygon fill="#27AE60" points="1363,834.5 1288,909.5 1363,984.5 1363,835 	"/>
	<polygon fill="#2ECC71" points="1287.747,760 1213,685 1213,834.5 1213,835 	"/>
	<polygon fill="#27AE60" points="1213,684.5 1138,759.5 1213,834.5 1213,685 	"/>
	<polygon fill="#2ECC71" points="1363,684 1437.747,609 1363,534 1363,683.5 	"/>
	<polygon fill="#27AE60" points="1288,608.5 1363,683.5 1363,534 1363,533.5 	"/>
	<polygon fill="#27AE60" points="1500,520.5 1500,396.5 1438,458.5 	"/>
	<polygon fill="#27AE60" points="1500,821.5 1500,697.5 1438,759.5 	"/>
	<polygon fill="#27AE60" points="1500,998 1500,997.5 1499.5,998 	"/>
	<polygon fill="#2ECC71" points="13,534 87.747,459 13,384 13,533.5 	"/>
	<polygon fill="#27AE60" points="13,384 13,383.5 13,383.5 13,383.5 0,396.5 0,520.5 13,533.5 	"/>
	<polygon fill="#2ECC71" points="163,383.5 163,384 237.747,309 163,234 163,383.5 	"/>
	<polygon fill="#27AE60" points="163,233.5 163,233.5 88,308.5 163,383.5 163,234 163,233.5 	"/>
	<polygon fill="#2ECC71" points="313,233.5 313,234 387.747,159 313,84 313,233.5 	"/>
	<polygon fill="#27AE60" points="313,233.5 313,84 313,83.5 238,158.5 	"/>
	<polygon fill="#2ECC71" points="463,83.5 463,84 537.747,9 528.777,0 463,0 463,83.5 	"/>
	<polygon fill="#27AE60" points="463,83.5 463,0 396.5,0 388,8.5 	"/>
	<polygon fill="#2ECC71" points="163,83.5 163,84 237.747,9 228.777,0 163,0 163,83.5 	"/>
	<polygon fill="#27AE60" points="163,83.5 163,0 96.5,0 88,8.5 	"/>
	<polygon fill="#2ECC71" points="13,233.5 13,234 87.747,159 13,84 13,233.5 	"/>
	<polygon fill="#27AE60" points="13,84 13,83.5 0,96.5 0,220.5 13,233.5 	"/>
	<polygon fill="#27AE60" points="1500,220.5 1500,96.5 1438,158.5 	"/>
	<polygon fill="#2ECC71" points="1363,83 1437.747,8 1429.774,0 1363,0 1363,82.5 	"/>
	<polygon fill="#27AE60" points="1363,82.5 1363,0 1295.5,0 1288,7.5 	"/>
</g>
</svg>
