<?xml version="1.0" encoding="utf-8"?>
<!-- Generator: Adobe Illustrator 16.0.0, SVG Export Plug-In . SVG Version: 6.00 Build 0)  -->
<!DOCTYPE svg PUBLIC "-//W3C//DTD SVG 1.1//EN" "http://www.w3.org/Graphics/SVG/1.1/DTD/svg11.dtd">
<svg version="1.1" id="Layer_1" xmlns="http://www.w3.org/2000/svg" xmlns:xlink="http://www.w3.org/1999/xlink" x="0px" y="0px"
	 width="1500px" height="1000px" viewBox="0 0 1500 1000" enable-background="new 0 0 1500 1000" xml:space="preserve">
<g>
	<path fill="none" d="M1213.057,1001h236.104l50.84-88.104v-77.53l-86.391,149.715l-86.501-149.902l-0.176,0.305L1413.211,985
		h-172.556l-0.046,0.08l-0.046-0.08h-0.558l0.278-0.482L1154.006,835l86.278-149.518l-0.278-0.482h0.557l0.046-0.08l0.046,0.08
		h172.557l-86.277,149.519l0.175,0.304l86.5-149.902L1500,834.635v-76.531L1448.006,668L1500,577.896v-77.53l-86.391,149.714
		l-86.501-149.902l-0.176,0.305L1413.211,650h-172.556l-0.046,0.08l-0.046-0.08h-0.558l0.278-0.482L1154.006,500l86.278-149.518
		l-0.278-0.482h0.557l0.046-0.08l0.046,0.08h172.557l-86.277,149.519l0.175,0.304l86.5-149.902L1500,499.634v-74.798L1447.006,333
		L1500,241.163V86.836L1450.468,1h-245.719l-83.14,144.08L1038.468,1h-0.351l83.094,144H948.655l-0.046,0.08l-0.046-0.08h-0.558
		l0.278-0.483L865.468,1H625.749l-83.139,144.08L459.468,1h-0.352l83.094,144H369.656l-0.046,0.08l-0.046-0.08h-0.557l0.279-0.483
		L286.468,1H41.749L-1,75.083v76.063L77.284,15.481L77.006,15h0.556l0.046-0.08L77.655,15h172.556l-86.278,149.518l0.176,0.305
		l86.5-149.903L337.211,165l-86.602,150.08l-86.501-149.903l-0.176,0.305L250.211,315H77.656l-0.046,0.08L77.563,315h-0.557
		l0.278-0.482L-1,178.853v72.332L46.211,333L-1,414.816v73.063l79.284-137.398L78.006,350h0.556l0.046-0.08l0.046,0.08h172.557
		l-86.278,149.518l0.176,0.305l86.5-149.902L338.211,500l-86.602,150.08l-86.501-149.903l-0.176,0.305L251.211,650H78.656
		l-0.046,0.08L78.563,650h-0.557l0.278-0.482L-1,512.12v72.331L47.211,668L-1,751.549v71.331l79.284-137.398L78.006,685h0.556
		l0.046-0.08l0.046,0.08h172.556l-86.278,149.519l0.175,0.304l86.5-149.902L338.211,835l-86.602,150.08l-86.501-149.902
		l-0.176,0.305L251.211,985H78.656l-0.046,0.08L78.563,985h-0.557l0.278-0.482L-1,847.12v72.331L46.057,1001H286.16l85.124-147.519
		L371.006,853h0.556l0.046-0.08l0.046,0.08h172.556l-85.402,148h0.351l85.448-148.08L630.057,1001H869.16l85.124-147.518
		L954.006,853h0.557l0.046-0.08l0.046,0.08h172.557l-85.401,148h0.351l85.448-148.08L1213.057,1001z M1239.006,15h0.557l0.046-0.08
		l0.046,0.08h172.557l-86.278,149.519l0.176,0.304l86.5-149.902L1499.211,165l-86.602,150.08l-86.501-149.902l-0.176,0.304
		L1412.211,315h-172.556l-0.046,0.08l-0.046-0.08h-0.558l0.278-0.483L1153.006,165l86.278-149.518L1239.006,15z M953.284,183.482
		L953.006,183h0.557l0.046-0.08l0.046,0.08h172.557l-86.278,149.519l0.176,0.304l86.5-149.902L1213.211,333l-86.602,150.08
		l-86.501-149.902l-0.176,0.304L1126.211,483H953.655l-0.046,0.08l-0.046-0.08h-0.558l0.278-0.483L867.006,333L953.284,183.482z
		 M836.211,650H663.656l-0.046,0.08l-0.046-0.08h-0.557l0.278-0.482L577.006,500l86.278-149.518L663.006,350h0.556l0.046-0.08
		l0.046,0.08h172.557l-86.278,149.518l0.176,0.305l86.5-149.902L923.211,500l-86.602,150.08l-86.501-149.903l-0.176,0.305
		L836.211,650z M662.006,15h0.556l0.046-0.08l0.046,0.08h172.556l-86.278,149.518l0.176,0.305l86.5-149.903L922.211,165
		l-86.602,150.08l-86.501-149.903l-0.176,0.305L835.211,315H662.656l-0.046,0.08l-0.046-0.08h-0.557l0.278-0.482L576.006,165
		l86.278-149.519L662.006,15z M284.006,333l86.278-149.519L370.006,183h0.556l0.046-0.08l0.046,0.08h172.556l-86.278,149.518
		l0.176,0.305l86.5-149.903L630.211,333l-86.602,150.08l-86.501-149.903l-0.176,0.305L543.211,483H370.656l-0.046,0.08l-0.046-0.08
		h-0.557l0.278-0.482L284.006,333z M458.108,668.178l-0.176,0.305L544.211,818H371.656l-0.046,0.08l-0.046-0.08h-0.557l0.278-0.482
		L285.006,668l86.278-149.519L371.006,518h0.556l0.046-0.08l0.046,0.08h172.556l-86.278,149.519l0.175,0.304l86.5-149.902
		L631.211,668l-86.602,150.08L458.108,668.178z M836.609,985.08l-86.501-149.902l-0.176,0.305L836.211,985H663.656l-0.046,0.08
		l-0.046-0.08h-0.557l0.278-0.482L577.006,835l86.278-149.519L663.006,685h0.556l0.046-0.08l0.046,0.08h172.556l-86.278,149.519
		l0.175,0.304l86.5-149.902L923.211,835L836.609,985.08z M954.655,818l-0.046,0.08l-0.046-0.08h-0.558l0.278-0.482L868.006,668
		l86.278-149.518L954.006,518h0.557l0.046-0.08l0.046,0.08h172.557l-86.277,149.519l0.175,0.304l86.5-149.902L1214.211,668
		l-86.602,150.08l-86.501-149.902l-0.176,0.305L1127.211,818H954.655z"/>
	<polygon fill="#E67E22" points="663.006,350 663.284,350.482 663.563,350 	"/>
	<polygon fill="#E67E22" points="836.211,350 663.654,350 749.933,499.518 	"/>
	<polygon fill="#2ECC71" points="750.108,500.177 836.609,650.08 923.211,500 750.211,500 	"/>
	<polygon fill="#9B59B6" points="577.006,500 663.285,649.518 749.563,500 	"/>
	<polygon fill="#9B59B6" points="663.609,650.08 663.656,650 663.563,650 	"/>
	<polygon fill="#9B59B6" points="750.211,500 750.006,500 749.654,500 749.933,500.482 750.108,500.177 	"/>
	<polygon fill="#3498DB" points="749.654,500 749.563,500 663.285,649.518 663.006,650 663.563,650 663.656,650 836.211,650 
		749.933,500.482 	"/>
	<polygon fill="#F1C40F" points="923.211,500 836.608,349.92 750.108,499.823 750.211,500 	"/>
	<polygon fill="#E74C3C" points="749.654,500 750.006,500 750.211,500 750.108,499.823 749.933,499.518 663.654,350 663.608,349.92 
		663.563,350 663.284,350.482 577.006,500 749.563,500 	"/>
	<polygon fill="#E67E22" points="836.211,685 663.655,685 749.933,834.519 	"/>
	<polygon fill="#E67E22" points="663.006,685 663.284,685.481 663.562,685 	"/>
	<polygon fill="#2ECC71" points="750.108,835.178 836.609,985.08 923.211,835 750.211,835 	"/>
	<polygon fill="#9B59B6" points="577.006,835 663.285,984.518 749.562,835 	"/>
	<polygon fill="#9B59B6" points="663.609,985.08 663.656,985 663.563,985 	"/>
	<polygon fill="#9B59B6" points="750.006,835 749.655,835 749.933,835.482 750.108,835.178 750.211,835 	"/>
	<polygon fill="#3498DB" points="749.655,835 749.562,835 663.285,984.518 663.006,985 663.563,985 663.656,985 836.211,985 
		749.933,835.482 	"/>
	<polygon fill="#F1C40F" points="750.108,834.822 750.211,835 923.211,835 836.608,684.92 	"/>
	<polygon fill="#E74C3C" points="749.655,835 750.006,835 750.211,835 750.108,834.822 749.933,834.519 663.655,685 663.608,684.92 
		663.562,685 663.284,685.481 577.006,835 749.562,835 	"/>
	<polygon fill="#E67E22" points="835.211,15 662.655,15 748.933,164.518 	"/>
	<polygon fill="#E67E22" points="662.006,15 662.284,15.481 662.562,15 	"/>
	<polygon fill="#2ECC71" points="749.108,165.177 835.609,315.08 922.211,165 749.211,165 	"/>
	<polygon fill="#9B59B6" points="576.006,165 662.285,314.518 748.562,165 	"/>
	<polygon fill="#9B59B6" points="662.609,315.08 662.656,315 662.563,315 	"/>
	<polygon fill="#9B59B6" points="749.006,165 748.655,165 748.933,165.482 749.108,165.177 749.211,165 	"/>
	<polygon fill="#3498DB" points="748.562,165 662.285,314.518 662.006,315 662.563,315 662.656,315 835.211,315 748.933,165.482 
		748.655,165 	"/>
	<polygon fill="#F1C40F" points="922.211,165 835.608,14.92 749.108,164.823 749.211,165 	"/>
	<polygon fill="#E74C3C" points="748.562,165 748.655,165 749.006,165 749.211,165 749.108,164.823 748.933,164.518 662.655,15 
		662.608,14.92 662.562,15 662.284,15.481 576.006,165 	"/>
	<polygon fill="#E67E22" points="954.006,518 954.284,518.482 954.563,518 	"/>
	<polygon fill="#E67E22" points="1127.211,518 954.654,518 1040.934,667.519 	"/>
	<polygon fill="#2ECC71" points="1041.108,668.178 1127.609,818.08 1214.211,668 1041.211,668 	"/>
	<polygon fill="#9B59B6" points="954.609,818.08 954.655,818 954.563,818 	"/>
	<polygon fill="#9B59B6" points="868.006,668 954.284,817.518 1040.563,668 	"/>
	<polygon fill="#9B59B6" points="1041.006,668 1040.654,668 1040.933,668.482 1041.108,668.178 1041.211,668 	"/>
	<polygon fill="#3498DB" points="1040.654,668 1040.563,668 954.284,817.518 954.006,818 954.563,818 954.655,818 1127.211,818 
		1040.933,668.482 	"/>
	<polygon fill="#F1C40F" points="1214.211,668 1127.608,517.92 1041.108,667.822 1041.211,668 	"/>
	<polygon fill="#E74C3C" points="1040.654,668 1041.006,668 1041.211,668 1041.108,667.822 1040.934,667.519 954.654,518 
		954.608,517.92 954.563,518 954.284,518.482 868.006,668 1040.563,668 	"/>
	<polygon fill="#E67E22" points="954.654,853 1040.057,1001 1041.81,1001 1127.211,853 	"/>
	<polygon fill="#E67E22" points="954.006,853 954.284,853.482 954.563,853 	"/>
	<polygon fill="#F1C40F" points="1127.608,852.92 1042.16,1001 1213.057,1001 	"/>
	<polygon fill="#E74C3C" points="954.608,852.92 954.563,853 954.284,853.482 869.16,1001 1040.057,1001 954.654,853 	"/>
	<polygon fill="#E67E22" points="1126.211,183 953.654,183 1039.933,332.519 	"/>
	<polygon fill="#E67E22" points="953.006,183 953.284,183.482 953.563,183 	"/>
	<polygon fill="#2ECC71" points="1040.108,333.178 1126.609,483.08 1213.211,333 1040.211,333 	"/>
	<polygon fill="#9B59B6" points="867.006,333 953.284,482.517 1039.563,333 	"/>
	<polygon fill="#9B59B6" points="953.609,483.08 953.655,483 953.563,483 	"/>
	<polygon fill="#9B59B6" points="1040.006,333 1039.654,333 1039.933,333.482 1040.108,333.178 1040.211,333 	"/>
	<polygon fill="#3498DB" points="1039.654,333 1039.563,333 953.284,482.517 953.006,483 953.563,483 953.655,483 1126.211,483 
		1039.933,333.482 	"/>
	<polygon fill="#F1C40F" points="1213.211,333 1126.608,182.92 1040.108,332.822 1040.211,333 	"/>
	<polygon fill="#E74C3C" points="1039.563,333 1039.654,333 1040.006,333 1040.211,333 1040.108,332.822 1039.933,332.519 
		953.654,183 953.608,182.92 953.563,183 953.284,183.482 867.006,333 	"/>
	<polygon fill="#E67E22" points="1240.006,350 1240.284,350.482 1240.563,350 	"/>
	<polygon fill="#E67E22" points="1413.211,350 1240.654,350 1326.934,499.519 	"/>
	<polygon fill="#2ECC71" points="1327.108,500.178 1413.609,650.08 1500,500.366 1500,500 1327.211,500 	"/>
	<polygon fill="#9B59B6" points="1240.609,650.08 1240.655,650 1240.563,650 	"/>
	<polygon fill="#9B59B6" points="1154.006,500 1240.284,649.518 1326.563,500 	"/>
	<polygon fill="#9B59B6" points="1327.006,500 1326.654,500 1326.933,500.482 1327.108,500.178 1327.211,500 	"/>
	<polygon fill="#3498DB" points="1326.654,500 1326.563,500 1240.284,649.518 1240.006,650 1240.563,650 1240.655,650 1413.211,650 
		1326.933,500.482 	"/>
	<polygon fill="#F1C40F" points="1327.108,499.822 1327.211,500 1500,500 1500,499.634 1413.608,349.92 	"/>
	<polygon fill="#E74C3C" points="1326.654,500 1327.006,500 1327.211,500 1327.108,499.822 1326.934,499.519 1240.654,350 
		1240.608,349.92 1240.563,350 1240.284,350.482 1154.006,500 1326.563,500 	"/>
	<polygon fill="#E67E22" points="1413.211,685 1240.654,685 1326.934,834.519 	"/>
	<polygon fill="#E67E22" points="1240.006,685 1240.284,685.482 1240.563,685 	"/>
	<polygon fill="#2ECC71" points="1327.108,835.178 1413.609,985.08 1500,835.365 1500,835 1327.211,835 	"/>
	<polygon fill="#9B59B6" points="1240.609,985.08 1240.655,985 1240.563,985 	"/>
	<polygon fill="#9B59B6" points="1154.006,835 1240.284,984.518 1326.563,835 	"/>
	<polygon fill="#9B59B6" points="1327.006,835 1326.654,835 1326.933,835.482 1327.108,835.178 1327.211,835 	"/>
	<polygon fill="#3498DB" points="1326.654,835 1326.563,835 1240.284,984.518 1240.006,985 1240.563,985 1240.655,985 1413.211,985 
		1326.933,835.482 	"/>
	<polygon fill="#F1C40F" points="1327.108,834.822 1327.211,835 1500,835 1500,834.635 1413.608,684.92 	"/>
	<polygon fill="#E74C3C" points="1326.654,835 1327.006,835 1327.211,835 1327.108,834.822 1326.934,834.519 1240.654,685 
		1240.608,684.92 1240.563,685 1240.284,685.482 1154.006,835 1326.563,835 	"/>
	<polygon fill="#E67E22" points="1239.006,15 1239.284,15.482 1239.563,15 	"/>
	<polygon fill="#E67E22" points="1412.211,15 1239.654,15 1325.933,164.519 	"/>
	<polygon fill="#2ECC71" points="1326.108,165.178 1412.609,315.08 1499.211,165 1326.211,165 	"/>
	<polygon fill="#9B59B6" points="1239.609,315.08 1239.655,315 1239.563,315 	"/>
	<polygon fill="#9B59B6" points="1153.006,165 1239.284,314.517 1325.563,165 	"/>
	<polygon fill="#9B59B6" points="1326.006,165 1325.654,165 1325.933,165.482 1326.108,165.178 1326.211,165 	"/>
	<polygon fill="#3498DB" points="1325.654,165 1325.563,165 1239.284,314.517 1239.006,315 1239.563,315 1239.655,315 1412.211,315 
		1325.933,165.482 	"/>
	<polygon fill="#F1C40F" points="1499.211,165 1412.608,14.92 1326.108,164.822 1326.211,165 	"/>
	<polygon fill="#E74C3C" points="1325.563,165 1325.654,165 1326.006,165 1326.211,165 1326.108,164.822 1325.933,164.519 
		1239.654,15 1239.608,14.92 1239.563,15 1239.284,15.482 1153.006,165 	"/>
	<polygon fill="#E67E22" points="544.211,518 371.655,518 457.933,667.519 	"/>
	<polygon fill="#E67E22" points="371.006,518 371.284,518.481 371.562,518 	"/>
	<polygon fill="#2ECC71" points="458.211,668 458.108,668.178 544.609,818.08 631.211,668 	"/>
	<polygon fill="#9B59B6" points="371.609,818.08 371.656,818 371.563,818 	"/>
	<polygon fill="#9B59B6" points="285.006,668 371.285,817.518 457.562,668 	"/>
	<polygon fill="#9B59B6" points="458.006,668 457.655,668 457.933,668.482 458.108,668.178 458.211,668 	"/>
	<polygon fill="#3498DB" points="457.655,668 457.562,668 371.285,817.518 371.006,818 371.563,818 371.656,818 544.211,818 
		457.933,668.482 	"/>
	<polygon fill="#F1C40F" points="631.211,668 544.608,517.92 458.108,667.822 458.211,668 	"/>
	<polygon fill="#E74C3C" points="457.655,668 458.006,668 458.211,668 458.108,667.822 457.933,667.519 371.655,518 371.608,517.92 
		371.562,518 371.284,518.481 285.006,668 457.562,668 	"/>
	<polygon fill="#E67E22" points="371.006,853 371.284,853.481 371.562,853 	"/>
	<polygon fill="#E67E22" points="371.655,853 457.057,1001 458.809,1001 544.211,853 	"/>
	<polygon fill="#F1C40F" points="459.16,1001 630.057,1001 544.608,852.92 	"/>
	<polygon fill="#E74C3C" points="371.608,852.92 371.562,853 371.284,853.481 286.16,1001 457.057,1001 371.655,853 	"/>
	<polygon fill="#E67E22" points="370.006,183 370.284,183.481 370.562,183 	"/>
	<polygon fill="#E67E22" points="543.211,183 370.655,183 456.933,332.518 	"/>
	<polygon fill="#2ECC71" points="457.108,333.177 543.609,483.08 630.211,333 457.211,333 	"/>
	<polygon fill="#9B59B6" points="456.562,333 284.006,333 370.285,482.518 	"/>
	<polygon fill="#9B59B6" points="370.609,483.08 370.656,483 370.563,483 	"/>
	<polygon fill="#9B59B6" points="457.006,333 456.655,333 456.933,333.482 457.108,333.177 457.211,333 	"/>
	<polygon fill="#3498DB" points="456.562,333 370.285,482.518 370.006,483 370.563,483 370.656,483 543.211,483 456.933,333.482 
		456.655,333 	"/>
	<polygon fill="#F1C40F" points="630.211,333 543.608,182.92 457.108,332.823 457.211,333 	"/>
	<polygon fill="#E74C3C" points="456.655,333 457.006,333 457.211,333 457.108,332.823 456.933,332.518 370.655,183 370.608,182.92 
		370.562,183 370.284,183.481 284.006,333 456.562,333 	"/>
	<polygon fill="#E67E22" points="251.211,350 78.654,350 164.933,499.518 	"/>
	<polygon fill="#E67E22" points="78.006,350 78.284,350.482 78.563,350 	"/>
	<polygon fill="#2ECC71" points="165.108,500.177 251.609,650.08 338.211,500 165.211,500 	"/>
	<polygon fill="#9B59B6" points="164.563,500 -1,500 -1,512.12 78.285,649.518 	"/>
	<polygon fill="#9B59B6" points="78.609,650.08 78.656,650 78.563,650 	"/>
	<polygon fill="#9B59B6" points="165.006,500 164.654,500 164.933,500.482 165.108,500.177 165.211,500 	"/>
	<polygon fill="#3498DB" points="164.654,500 164.563,500 78.285,649.518 78.006,650 78.563,650 78.656,650 251.211,650 
		164.933,500.482 	"/>
	<polygon fill="#F1C40F" points="338.211,500 251.608,349.92 165.108,499.823 165.211,500 	"/>
	<polygon fill="#E74C3C" points="164.654,500 165.006,500 165.211,500 165.108,499.823 164.933,499.518 78.654,350 78.608,349.92 
		78.563,350 78.284,350.482 -1,487.88 -1,500 164.563,500 	"/>
	<polygon fill="#E67E22" points="78.006,685 78.284,685.481 78.562,685 	"/>
	<polygon fill="#E67E22" points="251.211,685 78.655,685 164.933,834.519 	"/>
	<polygon fill="#2ECC71" points="165.108,835.178 251.609,985.08 338.211,835 165.211,835 	"/>
	<polygon fill="#9B59B6" points="164.562,835 -1,835 -1,847.12 78.285,984.518 	"/>
	<polygon fill="#9B59B6" points="78.609,985.08 78.656,985 78.563,985 	"/>
	<polygon fill="#9B59B6" points="165.006,835 164.655,835 164.933,835.482 165.108,835.178 165.211,835 	"/>
	<polygon fill="#3498DB" points="164.655,835 164.562,835 78.285,984.518 78.006,985 78.563,985 78.656,985 251.211,985 
		164.933,835.482 	"/>
	<polygon fill="#F1C40F" points="338.211,835 251.608,684.92 165.108,834.822 165.211,835 	"/>
	<polygon fill="#E74C3C" points="164.655,835 165.006,835 165.211,835 165.108,834.822 164.933,834.519 78.655,685 78.608,684.92 
		78.562,685 78.284,685.481 -1,822.88 -1,835 164.562,835 	"/>
	<polygon fill="#E67E22" points="77.006,15 77.284,15.481 77.562,15 	"/>
	<polygon fill="#E67E22" points="250.211,15 77.655,15 163.933,164.518 	"/>
	<polygon fill="#2ECC71" points="164.108,165.177 250.609,315.08 337.211,165 164.211,165 	"/>
	<polygon fill="#9B59B6" points="77.609,315.08 77.656,315 77.563,315 	"/>
	<polygon fill="#9B59B6" points="163.562,165 -1,165 -1,178.853 77.285,314.518 	"/>
	<polygon fill="#9B59B6" points="164.006,165 163.655,165 163.933,165.482 164.108,165.177 164.211,165 	"/>
	<polygon fill="#3498DB" points="163.562,165 77.285,314.518 77.006,315 77.563,315 77.656,315 250.211,315 163.933,165.482 
		163.655,165 	"/>
	<polygon fill="#F1C40F" points="337.211,165 250.608,14.92 164.108,164.823 164.211,165 	"/>
	<polygon fill="#E74C3C" points="163.655,165 164.006,165 164.211,165 164.108,164.823 163.933,164.518 77.655,15 77.608,14.92 
		77.562,15 77.284,15.481 -1,151.147 -1,165 163.562,165 	"/>
	<polygon fill="#2ECC71" points="-1,668 -1,751.549 47.211,668 	"/>
	<polygon fill="#F1C40F" points="-1,584.451 -1,668 47.211,668 	"/>
	<polygon fill="#F1C40F" points="-1,1001 46.057,1001 -1,919.451 	"/>
	<polygon fill="#2ECC71" points="-1,333 -1,414.816 46.211,333 	"/>
	<polygon fill="#F1C40F" points="-1,251.185 -1,333 46.211,333 	"/>
	<polygon fill="#9B59B6" points="1500,758.104 1500,668 1448.006,668 	"/>
	<polygon fill="#E74C3C" points="1500,668 1500,577.896 1448.006,668 	"/>
	<polygon fill="#E74C3C" points="1500,1001 1500,912.896 1449.16,1001 	"/>
	<polygon fill="#9B59B6" points="1500,424.836 1500,333 1447.006,333 	"/>
	<polygon fill="#E74C3C" points="1500,333 1500,241.163 1447.006,333 	"/>
	<polygon fill="#2ECC71" points="1204.749,1 1038.468,1 1121.609,145.08 	"/>
	<polygon fill="#9B59B6" points="948.609,145.08 948.655,145 948.563,145 	"/>
	<polygon fill="#9B59B6" points="1031.1,1 865.468,1 948.284,144.517 	"/>
	<polygon fill="#3498DB" points="948.006,145 948.563,145 948.655,145 1121.211,145 1038.117,1 1031.1,1 948.284,144.517 	"/>
	<polygon fill="#9B59B6" points="1500,1 1450.468,1 1500,86.836 	"/>
	<polygon fill="#2ECC71" points="625.749,1 459.468,1 542.609,145.08 	"/>
	<polygon fill="#9B59B6" points="369.609,145.08 369.656,145 369.563,145 	"/>
	<polygon fill="#9B59B6" points="452.1,1 286.468,1 369.285,144.517 	"/>
	<polygon fill="#3498DB" points="369.006,145 369.563,145 369.656,145 542.211,145 459.117,1 452.1,1 369.285,144.517 	"/>
	<polygon fill="#2ECC71" points="-1,1 -1,75.083 41.749,1 	"/>
</g>
</svg>
