<?xml version="1.0" encoding="utf-8"?>
<!-- Generator: Adobe Illustrator 16.0.0, SVG Export Plug-In . SVG Version: 6.00 Build 0)  -->
<!DOCTYPE svg PUBLIC "-//W3C//DTD SVG 1.1//EN" "http://www.w3.org/Graphics/SVG/1.1/DTD/svg11.dtd">
<svg version="1.1" id="Layer_1" xmlns="http://www.w3.org/2000/svg" xmlns:xlink="http://www.w3.org/1999/xlink" x="0px" y="0px"
	 width="1500px" height="1000px" viewBox="0 0 1500 1000" enable-background="new 0 0 1500 1000" xml:space="preserve">
<g>
	<polygon fill="none" points="123.006,660 209.284,510.482 209.108,510.178 122.655,660.001 209.108,809.822 209.285,809.518 	"/>
	<polygon fill="none" points="209.108,209.823 209.285,209.518 123.006,60 157.629,0 157.278,0 122.655,60.001 	"/>
	<polygon fill="none" points="296.108,59.822 330.628,0 330.277,0 295.933,59.519 	"/>
	<polygon fill="none" points="295.933,660.482 382.211,810 295.933,959.519 296.108,959.822 382.563,809.999 296.108,660.178 	"/>
	<polygon fill="none" points="469.285,59.517 434.94,0 434.588,0 469.108,59.822 	"/>
	<polygon fill="none" points="1075.934,209.519 1076.108,209.822 1162.563,60 1127.94,0 1127.588,0 1162.211,60 	"/>
	<polygon fill="none" points="295.933,359.518 296.108,359.823 382.563,210 296.108,60.178 295.933,60.482 382.211,210 382.211,210 
			"/>
	<polygon fill="none" points="123.006,360 209.284,210.482 209.108,210.177 122.655,360.001 209.108,509.822 209.285,509.518 	"/>
	<polygon fill="none" points="555.933,209.519 556.108,209.822 642.563,60 607.94,0 607.588,0 642.211,60 	"/>
	<polygon fill="none" points="1249.284,810.482 1249.108,810.178 1162.655,960.001 1185.736,1000 1186.088,1000 1163.006,960 	"/>
	<polygon fill="none" points="209.284,810.481 209.108,810.178 122.655,960.001 145.736,1000 146.088,1000 123.006,960 	"/>
	<polygon fill="none" points="469.285,359.518 383.006,210 469.284,60.482 469.108,60.177 382.655,210.001 469.108,359.823 	"/>
	<polygon fill="none" points="295.933,960.482 318.736,1000 319.088,1000 296.108,960.178 	"/>
	<polygon fill="none" points="1422.211,810 1335.934,959.519 1336.108,959.822 1422.563,809.999 1336.108,660.178 1335.933,660.482 
			"/>
	<polygon fill="none" points="469.284,660.481 469.108,660.178 382.655,810.001 469.108,959.822 469.285,959.518 383.006,810 	"/>
	<polygon fill="none" points="35.933,209.519 36.108,209.822 122.563,60 87.94,0 87.588,0 122.211,60 	"/>
	<polygon fill="none" points="36.108,810.178 35.933,810.482 122.211,960 99.129,1000 99.48,1000 122.563,959.999 	"/>
	<polygon fill="none" points="815.933,660.482 902.211,810 815.934,959.519 816.108,959.822 902.563,809.999 816.108,660.178 	"/>
	<polygon fill="none" points="1500,43.427 1474.94,0 1474.588,0 1500,44.038 	"/>
	<polygon fill="none" points="1162.655,360.001 1249.108,509.822 1249.284,509.518 1163.006,360 1249.284,210.482 1249.108,210.178 
			"/>
	<polygon fill="none" points="555.933,510.482 642.211,660 555.933,809.519 556.108,809.822 642.563,659.999 556.108,510.178 	"/>
	<polygon fill="none" points="296.108,659.822 382.563,509.999 296.108,360.177 295.933,360.482 382.211,510 295.933,659.519 	"/>
	<polygon fill="none" points="556.108,509.822 642.563,360 556.108,210.178 555.933,210.482 642.211,360 555.933,509.519 	"/>
	<polygon fill="none" points="729.284,510.482 729.108,510.178 642.655,660.001 729.108,809.822 729.285,809.518 643.006,660 	"/>
	<polygon fill="none" points="816.108,59.822 850.629,0 850.277,0 815.934,59.519 	"/>
	<polygon fill="none" points="989.284,59.517 954.94,0 954.588,0 989.108,59.822 	"/>
	<polygon fill="none" points="1162.655,660.001 1249.108,809.822 1249.284,809.518 1163.006,660 1249.284,510.482 1249.108,510.178 
			"/>
	<polygon fill="none" points="989.284,359.517 903.006,210 989.284,60.482 989.108,60.178 902.655,210.001 989.108,359.822 	"/>
	<polygon fill="none" points="1249.108,209.822 1249.284,209.517 1163.006,60 1197.629,0 1197.277,0 1162.655,60.001 	"/>
	<polygon fill="none" points="469.284,360.482 469.108,360.177 382.655,510.001 469.108,659.822 469.285,659.518 383.006,510 	"/>
	<polygon fill="none" points="815.933,360.482 902.211,510 815.934,659.519 816.108,659.822 902.563,509.999 816.108,360.178 	"/>
	<polygon fill="none" points="1486.48,1000 1500,976.571 1500,975.963 1486.13,1000 	"/>
	<polygon fill="none" points="729.108,209.823 729.285,209.518 643.006,60 677.629,0 677.278,0 642.655,60.001 	"/>
	<polygon fill="none" points="816.108,359.822 902.563,210 816.108,60.178 815.933,60.482 902.211,210 815.934,359.519 	"/>
	<polygon fill="none" points="729.285,509.518 643.006,360 729.284,210.482 729.108,210.178 642.655,360.001 729.108,509.822 	"/>
	<polygon fill="none" points="1076.108,509.822 1162.563,360 1076.108,210.178 1075.933,210.482 1162.211,360 1075.934,509.519 	"/>
	<polygon fill="none" points="989.284,360.482 989.108,360.178 902.655,510.001 989.108,659.822 989.284,659.518 903.006,510 	"/>
	<polygon fill="none" points="989.284,660.482 989.108,660.178 902.655,810.001 989.108,959.822 989.284,959.518 903.006,810 	"/>
	<polygon fill="none" points="1500,944.038 1500,943.428 1423.006,810 1500,676.571 1500,675.963 1422.655,810.001 	"/>
	<polygon fill="none" points="815.933,960.482 838.736,1000 839.088,1000 816.108,960.178 	"/>
	<polygon fill="none" points="36.108,510.178 35.933,510.482 122.211,660 35.933,809.519 36.108,809.822 122.563,659.999 	"/>
	<polygon fill="none" points="36.108,210.178 35.933,210.482 122.211,360 35.933,509.519 36.108,509.822 122.563,360 	"/>
	<polygon fill="none" points="1500,344.038 1500,343.427 1423.006,210 1500,76.571 1500,75.962 1422.655,210.001 	"/>
	<polygon fill="none" points="1075.933,510.482 1162.211,660 1075.934,809.519 1076.108,809.822 1162.563,659.999 1076.108,510.178 
			"/>
	<polygon fill="none" points="641.211,960 618.129,1000 618.48,1000 641.562,960 	"/>
	<polygon fill="none" points="1336.108,59.822 1370.629,0 1370.277,0 1335.934,59.519 	"/>
	<polygon fill="none" points="989.108,960.178 966.13,1000 966.48,1000 989.284,960.482 	"/>
	<polygon fill="none" points="1422.211,510 1335.934,659.519 1336.108,659.822 1422.563,509.999 1336.108,360.178 1335.933,360.482 
			"/>
	<polygon fill="none" points="1335.933,960.482 1358.736,1000 1359.088,1000 1336.108,960.178 	"/>
	<polygon fill="none" points="1422.211,210 1335.934,359.519 1336.108,359.822 1422.563,210 1336.108,60.178 1335.933,60.482 	"/>
	<polygon fill="none" points="1076.108,810.178 1075.933,810.482 1162.211,960 1139.13,1000 1139.48,1000 1162.563,959.999 	"/>
	<polygon fill="none" points="1500,644.038 1500,643.428 1423.006,510 1500,376.571 1500,375.962 1422.655,510.001 	"/>
	<polygon fill="none" points="729.284,810.481 729.108,810.178 642.609,960.08 556.108,810.178 555.933,810.482 642.211,960 
		641.655,960 664.736,1000 666.088,1000 643.006,960 	"/>
	<polygon fill="#939393" points="209.563,210 209.211,210 209.108,210.177 209.284,210.482 	"/>
	<polygon fill="#939393" points="295.933,359.518 382.211,210 382.211,210 209.656,210 209.655,210.001 	"/>
	<polygon fill="#939393" points="382.563,509.999 382.608,509.92 382.655,510.001 469.108,360.177 469.006,360 296.211,360 
		296.108,360.177 	"/>
	<polygon fill="#777777" points="209.285,509.518 295.563,360 123.006,360 	"/>
	<polygon fill="#777777" points="296.211,360 296.006,360 295.654,360 295.933,360.482 296.108,360.177 	"/>
	<polygon fill="#818181" points="209.608,509.92 209.655,510 382.211,510 295.933,360.482 295.654,360 295.563,360 209.285,509.518 
		209.108,509.822 209.211,510 209.562,510 	"/>
	<polygon fill="#BEBEBE" points="296.211,360 469.006,360 469.108,359.823 382.655,210.001 382.609,210.08 382.563,210 
		296.108,359.823 	"/>
	<polygon fill="#797979" points="123.006,360 295.563,360 295.654,360 296.006,360 296.211,360 296.108,359.823 295.933,359.518 
		209.655,210.001 209.609,210.08 209.563,210 209.563,210 209.284,210.482 	"/>
	<polygon fill="#939393" points="469.284,360.482 469.563,360 469.211,360 469.006,360 469.108,360.177 	"/>
	<polygon fill="#939393" points="555.933,509.519 642.211,360 469.656,360 469.655,360.001 	"/>
	<polygon fill="#939393" points="729.006,510 556.211,510 556.108,510.178 642.563,659.999 642.608,659.92 642.655,660.001 
		729.108,510.178 	"/>
	<polygon fill="#777777" points="555.655,510 555.933,510.482 556.108,510.178 556.211,510 556.006,510 	"/>
	<polygon fill="#777777" points="469.285,659.518 555.562,510 383.006,510 	"/>
	<polygon fill="#818181" points="642.211,660 555.933,510.482 555.655,510 555.562,510 469.285,659.518 469.108,659.822 
		469.211,660 469.562,660 469.608,659.92 469.655,660 	"/>
	<polygon fill="#BEBEBE" points="556.211,510 729.006,510 729.108,509.822 642.655,360.001 642.609,360.08 642.563,360 
		556.108,509.822 	"/>
	<polygon fill="#797979" points="383.006,510 555.562,510 555.655,510 556.006,510 556.211,510 556.108,509.822 555.933,509.519 
		469.655,360.001 469.609,360.08 469.563,360 469.563,360 469.284,360.482 	"/>
	<polygon fill="#939393" points="555.933,209.519 642.211,60 469.656,60 469.655,60.001 	"/>
	<polygon fill="#939393" points="469.284,60.482 469.563,60 469.211,60 469.108,60.177 	"/>
	<polygon fill="#939393" points="642.563,360 642.609,360.08 642.655,360.001 729.108,210.178 729.006,210 556.211,210 
		556.108,210.178 	"/>
	<polygon fill="#777777" points="555.933,210.482 556.108,210.178 556.211,210 556.006,210 555.654,210 	"/>
	<polygon fill="#777777" points="555.563,210 383.006,210 469.285,359.518 	"/>
	<polygon fill="#777777" points="469.655,360.001 469.656,360 469.563,360 469.609,360.08 	"/>
	<polygon fill="#818181" points="469.108,359.823 469.006,360 469.211,360 469.563,360 469.563,360 469.656,360 642.211,360 
		555.933,210.482 555.654,210 555.563,210 469.285,359.518 	"/>
	<polygon fill="#BEBEBE" points="729.006,210 729.006,210 729.108,209.823 642.655,60.001 642.609,60.08 642.563,60 
		556.108,209.822 556.211,210 	"/>
	<polygon fill="#797979" points="383.006,210 555.563,210 555.654,210 556.006,210 556.211,210 556.108,209.822 555.933,209.519 
		469.655,60.001 469.609,60.08 469.563,60 469.563,60 469.284,60.482 	"/>
	<polygon fill="#939393" points="729.284,210.482 729.563,210 729.211,210 729.006,210 729.006,210 729.108,210.178 	"/>
	<polygon fill="#939393" points="815.934,359.519 902.211,210 729.656,210 729.655,210.001 	"/>
	<polygon fill="#939393" points="902.563,509.999 902.608,509.92 902.655,510.001 989.108,360.178 989.006,360 816.211,360 
		816.108,360.178 	"/>
	<polygon fill="#777777" points="815.933,360.482 816.108,360.178 816.211,360 816.006,360 815.654,360 	"/>
	<polygon fill="#777777" points="815.563,360 643.006,360 729.285,509.518 	"/>
	<polygon fill="#818181" points="729.108,509.822 729.006,510 729.211,510 729.562,510 729.608,509.92 729.655,510 902.211,510 
		815.933,360.482 815.654,360 815.563,360 729.285,509.518 	"/>
	<polygon fill="#BEBEBE" points="816.211,360 989.006,360 989.108,359.822 902.655,210.001 902.609,210.08 902.563,210 
		816.108,359.822 	"/>
	<polygon fill="#797979" points="643.006,360 815.563,360 815.654,360 816.006,360 816.211,360 816.108,359.822 815.934,359.519 
		729.655,210.001 729.609,210.08 729.563,210 729.563,210 729.284,210.482 	"/>
	<polygon fill="#939393" points="209.562,510 209.211,510 209.108,510.178 209.284,510.482 	"/>
	<polygon fill="#939393" points="295.933,659.519 382.211,510 209.655,510 	"/>
	<polygon fill="#939393" points="469.006,660 296.211,660 296.108,660.178 382.563,809.999 382.608,809.92 382.655,810.001 
		469.108,660.178 	"/>
	<polygon fill="#777777" points="295.655,660 295.933,660.482 296.108,660.178 296.211,660 296.006,660 	"/>
	<polygon fill="#777777" points="209.285,809.518 295.562,660 123.006,660 	"/>
	<polygon fill="#818181" points="382.211,810 295.933,660.482 295.655,660 295.562,660 209.285,809.518 209.108,809.822 
		209.211,810 209.562,810 209.608,809.92 209.655,810 	"/>
	<polygon fill="#BEBEBE" points="469.108,659.822 382.655,510.001 382.608,509.92 382.563,509.999 296.108,659.822 296.211,660 
		469.006,660 469.211,660 	"/>
	<polygon fill="#797979" points="295.933,659.519 209.655,510 209.608,509.92 209.562,510 209.284,510.482 123.006,660 295.562,660 
		295.655,660 296.006,660 296.211,660 296.108,659.822 	"/>
	<polygon fill="#939393" points="729.655,510 815.934,659.519 902.211,510 	"/>
	<polygon fill="#939393" points="729.006,510 729.108,510.178 729.284,510.482 729.562,510 729.211,510 	"/>
	<polygon fill="#939393" points="989.006,660 816.211,660 816.108,660.178 902.563,809.999 902.608,809.92 902.655,810.001 
		989.108,660.178 	"/>
	<polygon fill="#777777" points="729.285,809.518 815.563,660 643.006,660 	"/>
	<polygon fill="#777777" points="815.654,660 815.933,660.482 816.108,660.178 816.211,660 816.006,660 	"/>
	<polygon fill="#818181" points="902.211,810 815.933,660.482 815.654,660 815.563,660 729.285,809.518 729.108,809.822 
		729.211,810 729.562,810 729.608,809.92 729.655,810 	"/>
	<polygon fill="#BEBEBE" points="902.655,510.001 902.608,509.92 902.563,509.999 816.108,659.822 816.211,660 989.006,660 
		989.108,659.822 	"/>
	<polygon fill="#797979" points="815.934,659.519 729.655,510 729.608,509.92 729.562,510 729.284,510.482 643.006,660 815.563,660 
		815.654,660 816.006,660 816.211,660 816.108,659.822 	"/>
	<polygon fill="#939393" points="469.655,660 555.933,809.519 642.211,660 	"/>
	<polygon fill="#939393" points="469.006,660 469.108,660.178 469.284,660.481 469.562,660 469.211,660 	"/>
	<polygon fill="#939393" points="729.006,810 556.211,810 556.108,810.178 642.609,960.08 729.108,810.178 729.006,810 	"/>
	<polygon fill="#777777" points="469.285,959.518 555.562,810 383.006,810 	"/>
	<polygon fill="#777777" points="556.006,810 555.655,810 555.933,810.482 556.108,810.178 556.211,810 	"/>
	<polygon fill="#818181" points="555.655,810 555.562,810 469.285,959.518 469.108,959.822 469.211,960 641.211,960 641.562,960 
		641.608,959.92 641.655,960 642.211,960 555.933,810.482 	"/>
	<polygon fill="#BEBEBE" points="642.655,660.001 642.608,659.92 642.563,659.999 556.108,809.822 556.211,810 729.006,810 
		729.006,810 729.211,810 729.108,809.822 	"/>
	<polygon fill="#797979" points="555.933,809.519 469.655,660 469.608,659.92 469.562,660 469.284,660.481 383.006,810 555.562,810 
		555.655,810 556.006,810 556.211,810 556.108,809.822 	"/>
	<polygon fill="#939393" points="850.277,0 781.588,0 815.934,59.519 	"/>
	<polygon fill="#939393" points="902.563,210 902.609,210.08 902.655,210.001 989.108,60.178 989.006,60 816.211,60 816.108,60.178 
			"/>
	<polygon fill="#777777" points="815.933,60.482 816.108,60.178 816.211,60 816.006,60 815.654,60 	"/>
	<polygon fill="#777777" points="643.006,60 729.285,209.518 815.563,60 	"/>
	<polygon fill="#777777" points="729.655,210.001 729.656,210 729.563,210 729.609,210.08 	"/>
	<polygon fill="#818181" points="729.211,210 729.563,210 729.563,210 729.656,210 902.211,210 815.933,60.482 815.654,60 
		815.563,60 729.285,209.518 729.108,209.823 729.006,210 	"/>
	<polygon fill="#BEBEBE" points="816.211,60 989.006,60 989.108,59.822 954.588,0 850.629,0 816.108,59.822 	"/>
	<polygon fill="#797979" points="815.563,60 815.654,60 816.006,60 816.211,60 816.108,59.822 815.934,59.519 781.588,0 677.629,0 
		643.006,60 	"/>
	<polygon fill="#939393" points="989.284,60.482 989.563,60 989.211,60 989.006,60 989.108,60.178 	"/>
	<polygon fill="#939393" points="1075.934,209.519 1162.211,60 989.655,60 989.655,60.001 	"/>
	<polygon fill="#939393" points="1162.563,360 1162.608,359.92 1162.655,360.001 1249.108,210.178 1249.006,210 1076.211,210 
		1076.108,210.178 	"/>
	<polygon fill="#777777" points="1075.933,210.482 1076.108,210.178 1076.211,210 1076.006,210 1075.654,210 	"/>
	<polygon fill="#777777" points="1075.563,210 903.006,210 989.284,359.517 	"/>
	<polygon fill="#818181" points="989.108,359.822 989.006,360 989.211,360 989.563,360 989.608,359.92 989.654,360 1162.211,360 
		1075.933,210.482 1075.654,210 1075.563,210 989.284,359.517 	"/>
	<polygon fill="#BEBEBE" points="1249.006,210 1249.108,209.822 1162.655,60.001 1162.609,60.08 1162.563,60 1076.108,209.822 
		1076.211,210 	"/>
	<polygon fill="#797979" points="903.006,210 1075.563,210 1075.654,210 1076.006,210 1076.211,210 1076.108,209.822 
		1075.934,209.519 989.655,60.001 989.609,60.08 989.563,60 989.563,60 989.284,60.482 	"/>
	<polygon fill="#939393" points="1075.934,509.519 1162.211,360 989.654,360 	"/>
	<polygon fill="#939393" points="989.284,360.482 989.563,360 989.211,360 989.006,360 989.108,360.178 	"/>
	<polygon fill="#939393" points="1249.006,510 1076.211,510 1076.108,510.178 1162.563,659.999 1162.608,659.92 1162.655,660.001 
		1249.108,510.178 	"/>
	<polygon fill="#777777" points="1075.654,510 1075.933,510.482 1076.108,510.178 1076.211,510 1076.006,510 	"/>
	<polygon fill="#777777" points="989.284,659.518 1075.563,510 903.006,510 	"/>
	<polygon fill="#818181" points="1162.211,660 1075.933,510.482 1075.654,510 1075.563,510 989.284,659.518 989.108,659.822 
		989.006,660 989.211,660 989.563,660 989.608,659.92 989.654,660 	"/>
	<polygon fill="#BEBEBE" points="1076.211,510 1249.006,510 1249.108,509.822 1162.655,360.001 1162.608,359.92 1162.563,360 
		1076.108,509.822 	"/>
	<polygon fill="#797979" points="903.006,510 1075.563,510 1075.654,510 1076.006,510 1076.211,510 1076.108,509.822 
		1075.934,509.519 989.654,360 989.608,359.92 989.563,360 989.284,360.482 	"/>
	<polygon fill="#939393" points="989.654,660 1075.934,809.519 1162.211,660 	"/>
	<polygon fill="#939393" points="989.006,660 989.108,660.178 989.284,660.482 989.563,660 989.211,660 	"/>
	<polygon fill="#939393" points="1076.211,810 1076.108,810.178 1162.563,959.999 1162.608,959.92 1162.655,960.001 
		1249.108,810.178 1249.006,810 	"/>
	<polygon fill="#777777" points="989.284,959.518 1075.563,810 903.006,810 	"/>
	<polygon fill="#777777" points="1076.006,810 1075.654,810 1075.933,810.482 1076.108,810.178 1076.211,810 	"/>
	<polygon fill="#818181" points="1075.654,810 1075.563,810 989.284,959.518 989.108,959.822 989.211,960 989.563,960 
		989.608,959.92 989.654,960 1162.211,960 1075.933,810.482 	"/>
	<polygon fill="#BEBEBE" points="1162.655,660.001 1162.608,659.92 1162.563,659.999 1076.108,809.822 1076.211,810 1249.006,810 
		1249.108,809.822 	"/>
	<polygon fill="#797979" points="1075.934,809.519 989.654,660 989.608,659.92 989.563,660 989.284,660.482 903.006,810 
		1075.563,810 1075.654,810 1076.006,810 1076.211,810 1076.108,809.822 	"/>
	<polygon fill="#939393" points="729.211,810 729.006,810 729.108,810.178 729.284,810.481 729.562,810 	"/>
	<polygon fill="#939393" points="729.655,810 815.934,959.519 902.211,810 	"/>
	<polygon fill="#939393" points="989.006,960 816.211,960 816.108,960.178 839.088,1000 966.13,1000 989.108,960.178 	"/>
	<polygon fill="#777777" points="815.654,960 815.933,960.482 816.108,960.178 816.211,960 816.006,960 	"/>
	<polygon fill="#777777" points="643.006,960 666.088,1000 792.48,1000 815.563,960 	"/>
	<polygon fill="#818181" points="815.654,960 815.563,960 792.48,1000 838.736,1000 815.933,960.482 	"/>
	<polygon fill="#BEBEBE" points="989.108,959.822 902.655,810.001 902.608,809.92 902.563,809.999 816.108,959.822 816.211,960 
		989.006,960 989.211,960 	"/>
	<polygon fill="#797979" points="815.934,959.519 729.655,810 729.608,809.92 729.562,810 729.284,810.481 643.006,960 815.563,960 
		815.654,960 816.006,960 816.211,960 816.108,959.822 	"/>
	<polygon fill="#939393" points="1249.655,510.001 1335.934,659.519 1422.211,510 1249.655,510 	"/>
	<polygon fill="#939393" points="1249.006,510 1249.108,510.178 1249.284,510.482 1249.563,510 1249.211,510 	"/>
	<polygon fill="#939393" points="1336.108,660.178 1422.563,809.999 1422.608,809.92 1422.655,810.001 1500,675.963 1500,660 
		1336.211,660 	"/>
	<polygon fill="#777777" points="1335.563,660 1163.006,660 1249.284,809.518 	"/>
	<polygon fill="#777777" points="1335.654,660 1335.933,660.482 1336.108,660.178 1336.211,660 1336.006,660 	"/>
	<polygon fill="#818181" points="1422.211,810 1335.933,660.482 1335.654,660 1335.563,660 1249.284,809.518 1249.108,809.822 
		1249.006,810 1249.211,810 1249.563,810 1249.608,809.92 1249.654,810 	"/>
	<polygon fill="#BEBEBE" points="1422.609,510.08 1422.563,509.999 1336.108,659.822 1336.211,660 1500,660 1500,644.038 
		1422.655,510.001 	"/>
	<polygon fill="#797979" points="1249.655,510.001 1249.609,510.08 1249.563,510 1249.563,510 1249.284,510.482 1163.006,660 
		1335.563,660 1335.654,660 1336.006,660 1336.211,660 1336.108,659.822 1335.934,659.519 	"/>
	<polygon fill="#939393" points="1335.934,359.519 1422.211,210 1249.655,210 1249.655,210.001 	"/>
	<polygon fill="#939393" points="1249.284,210.482 1249.563,210 1249.211,210 1249.006,210 1249.108,210.178 	"/>
	<polygon fill="#939393" points="1336.108,360.178 1422.563,509.999 1422.609,510.08 1422.655,510.001 1500,375.962 1500,360 
		1336.211,360 	"/>
	<polygon fill="#777777" points="1335.654,360 1335.933,360.482 1336.108,360.178 1336.211,360 1336.006,360 	"/>
	<polygon fill="#777777" points="1335.563,360 1163.006,360 1249.284,509.518 	"/>
	<polygon fill="#777777" points="1249.563,510 1249.609,510.08 1249.655,510.001 1249.655,510 	"/>
	<polygon fill="#818181" points="1249.108,509.822 1249.006,510 1249.211,510 1249.563,510 1249.563,510 1249.655,510 1422.211,510 
		1335.933,360.482 1335.654,360 1335.563,360 1249.284,509.518 	"/>
	<polygon fill="#BEBEBE" points="1422.609,210.08 1422.563,210 1336.108,359.822 1336.211,360 1500,360 1500,344.038 
		1422.655,210.001 	"/>
	<polygon fill="#797979" points="1249.655,210.001 1249.609,210.08 1249.563,210 1249.563,210 1249.284,210.482 1163.006,360 
		1335.563,360 1335.654,360 1336.006,360 1336.211,360 1336.108,359.822 1335.934,359.519 	"/>
	<polygon fill="#939393" points="1370.277,0 1301.588,0 1335.934,59.519 	"/>
	<polygon fill="#939393" points="1336.108,60.178 1422.563,210 1422.609,210.08 1422.655,210.001 1500,75.962 1500,60 1336.211,60 	
		"/>
	<polygon fill="#777777" points="1163.006,60 1249.284,209.517 1335.563,60 	"/>
	<polygon fill="#777777" points="1335.933,60.482 1336.108,60.178 1336.211,60 1336.006,60 1335.654,60 	"/>
	<polygon fill="#777777" points="1249.655,210.001 1249.655,210 1249.563,210 1249.609,210.08 	"/>
	<polygon fill="#818181" points="1249.211,210 1249.563,210 1249.563,210 1249.655,210 1422.211,210 1335.933,60.482 1335.654,60 
		1335.563,60 1249.284,209.517 1249.108,209.822 1249.006,210 	"/>
	<polygon fill="#BEBEBE" points="1336.211,60 1500,60 1500,44.038 1474.588,0 1370.629,0 1336.108,59.822 	"/>
	<polygon fill="#797979" points="1335.563,60 1335.654,60 1336.006,60 1336.211,60 1336.108,59.822 1335.934,59.519 1301.588,0 
		1197.629,0 1163.006,60 	"/>
	<polygon fill="#939393" points="1249.654,810 1335.934,959.519 1422.211,810 	"/>
	<polygon fill="#939393" points="1249.211,810 1249.006,810 1249.108,810.178 1249.284,810.482 1249.563,810 	"/>
	<polygon fill="#939393" points="1336.108,960.178 1359.088,1000 1486.13,1000 1500,975.963 1500,960 1336.211,960 	"/>
	<polygon fill="#777777" points="1163.006,960 1186.088,1000 1312.48,1000 1335.563,960 	"/>
	<polygon fill="#777777" points="1336.211,960 1336.006,960 1335.654,960 1335.933,960.482 1336.108,960.178 	"/>
	<polygon fill="#818181" points="1335.933,960.482 1335.654,960 1335.563,960 1312.48,1000 1358.736,1000 	"/>
	<polygon fill="#BEBEBE" points="1422.608,809.92 1422.563,809.999 1336.108,959.822 1336.211,960 1500,960 1500,944.038 
		1422.655,810.001 	"/>
	<polygon fill="#797979" points="1336.006,960 1336.211,960 1336.108,959.822 1335.934,959.519 1249.654,810 1249.608,809.92 
		1249.563,810 1249.284,810.482 1163.006,960 1335.563,960 1335.654,960 	"/>
	<polygon fill="#777777" points="1500,943.428 1500,810 1423.006,810 	"/>
	<polygon fill="#797979" points="1500,810 1500,676.571 1423.006,810 	"/>
	<polygon fill="#777777" points="1500,643.428 1500,510 1423.006,510 	"/>
	<polygon fill="#797979" points="1500,510 1500,376.571 1423.006,510 	"/>
	<polygon fill="#777777" points="1500,343.427 1500,210 1423.006,210 	"/>
	<polygon fill="#797979" points="1500,210 1500,76.571 1423.006,210 	"/>
	<polygon fill="#777777" points="1500,0 1474.94,0 1500,43.427 	"/>
	<polygon fill="#939393" points="1162.609,60.08 1162.655,60.001 1197.277,0 1127.94,0 1162.563,60 	"/>
	<polygon fill="#777777" points="1023.629,0 954.94,0 989.284,59.517 	"/>
	<polygon fill="#777777" points="989.655,60.001 989.655,60 989.563,60 989.609,60.08 	"/>
	<polygon fill="#818181" points="989.108,59.822 989.006,60 989.211,60 989.563,60 989.563,60 989.655,60 1162.211,60 1127.588,0 
		1023.629,0 989.284,59.517 	"/>
	<polygon fill="#939393" points="642.609,60.08 642.655,60.001 677.278,0 607.94,0 642.563,60 	"/>
	<polygon fill="#777777" points="503.628,0 434.94,0 469.285,59.517 	"/>
	<polygon fill="#777777" points="469.655,60.001 469.656,60 469.563,60 469.609,60.08 	"/>
	<polygon fill="#818181" points="469.108,59.822 469.211,60 469.563,60 469.563,60 469.656,60 642.211,60 607.588,0 503.628,0 
		469.285,59.517 	"/>
	<polygon fill="#939393" points="330.277,0 261.588,0 295.933,59.519 	"/>
	<polygon fill="#939393" points="382.563,210 382.609,210.08 382.655,210.001 469.108,60.177 469.211,60 469.006,60 469.006,60 
		296.211,60 296.108,60.178 	"/>
	<polygon fill="#777777" points="123.006,60 209.285,209.518 295.563,60 	"/>
	<polygon fill="#777777" points="295.933,60.482 296.108,60.178 296.211,60 296.006,60 295.654,60 	"/>
	<polygon fill="#777777" points="209.655,210.001 209.656,210 209.563,210 209.609,210.08 	"/>
	<polygon fill="#818181" points="209.563,210 209.563,210 209.656,210 382.211,210 295.933,60.482 295.654,60 295.563,60 
		209.285,209.518 209.108,209.823 209.211,210 	"/>
	<polygon fill="#BEBEBE" points="296.211,60 469.006,60 469.006,60 469.211,60 469.108,59.822 434.588,0 330.628,0 296.108,59.822 	
		"/>
	<polygon fill="#797979" points="295.563,60 295.654,60 296.006,60 296.211,60 296.108,59.822 295.933,59.519 261.588,0 157.629,0 
		123.006,60 	"/>
	<polygon fill="#939393" points="122.211,60 0,60 0,147.248 35.933,209.519 	"/>
	<polygon fill="#939393" points="122.563,360 122.608,359.92 122.655,360.001 209.108,210.177 209.211,210 209.006,210 36.211,210 
		36.108,210.178 	"/>
	<polygon fill="#777777" points="0,210 0,271.629 35.563,210 	"/>
	<polygon fill="#777777" points="36.211,210 36.006,210 35.654,210 35.933,210.482 36.108,210.178 	"/>
	<polygon fill="#818181" points="35.933,210.482 35.654,210 35.563,210 0,271.629 0,360 122.211,360 	"/>
	<polygon fill="#BEBEBE" points="209.211,210 209.108,209.823 122.655,60.001 122.609,60.08 122.563,60 36.108,209.822 36.211,210 
		209.006,210 	"/>
	<polygon fill="#797979" points="35.654,210 36.006,210 36.211,210 36.108,209.822 35.933,209.519 0,147.248 0,210 35.563,210 	"/>
	<polygon fill="#939393" points="122.609,60.08 122.655,60.001 157.278,0 87.94,0 122.563,60 	"/>
	<polygon fill="#818181" points="87.588,0 0,0 0,60 122.211,60 	"/>
	<polygon fill="#939393" points="122.211,360 0,360 0,447.248 35.933,509.519 	"/>
	<polygon fill="#939393" points="122.563,659.999 122.608,659.92 122.655,660.001 209.108,510.178 209.211,510 209.006,510 
		209.006,510 36.211,510 36.108,510.178 	"/>
	<polygon fill="#777777" points="0,510 0,571.629 35.562,510 	"/>
	<polygon fill="#777777" points="36.211,510 36.006,510 35.655,510 35.933,510.482 36.108,510.178 	"/>
	<polygon fill="#818181" points="35.933,510.482 35.655,510 35.562,510 0,571.629 0,660 122.211,660 	"/>
	<polygon fill="#BEBEBE" points="209.006,510 209.211,510 209.108,509.822 122.655,360.001 122.608,359.92 122.563,360 
		36.108,509.822 36.211,510 209.006,510 	"/>
	<polygon fill="#797979" points="35.655,510 36.006,510 36.211,510 36.108,509.822 35.933,509.519 0,447.248 0,510 35.562,510 	"/>
	<polygon fill="#939393" points="122.211,660 0,660 0,747.247 35.933,809.519 	"/>
	<polygon fill="#939393" points="209.006,810 36.211,810 36.108,810.178 122.563,959.999 122.608,959.92 122.655,960.001 
		209.108,810.178 209.006,810 	"/>
	<polygon fill="#777777" points="0,810 0,871.629 35.562,810 	"/>
	<polygon fill="#777777" points="36.006,810 35.655,810 35.933,810.482 36.108,810.178 36.211,810 	"/>
	<polygon fill="#818181" points="35.933,810.482 35.655,810 35.562,810 0,871.629 0,960 122.211,960 	"/>
	<polygon fill="#BEBEBE" points="209.006,810 209.211,810 209.108,809.822 122.655,660.001 122.608,659.92 122.563,659.999 
		36.108,809.822 36.211,810 209.006,810 	"/>
	<polygon fill="#797979" points="35.655,810 36.006,810 36.211,810 36.108,809.822 35.933,809.519 0,747.247 0,810 35.562,810 	"/>
	<polygon fill="#939393" points="209.655,810 295.933,959.519 382.211,810 	"/>
	<polygon fill="#939393" points="209.211,810 209.006,810 209.108,810.178 209.284,810.481 209.562,810 	"/>
	<polygon fill="#939393" points="468.006,960 296.211,960 296.108,960.178 319.088,1000 445.48,1000 468.284,960.481 	"/>
	<polygon fill="#777777" points="123.006,960 146.088,1000 272.48,1000 295.562,960 	"/>
	<polygon fill="#777777" points="295.655,960 295.933,960.482 296.108,960.178 296.211,960 296.006,960 	"/>
	<polygon fill="#818181" points="295.655,960 295.562,960 272.48,1000 318.736,1000 295.933,960.482 	"/>
	<polygon fill="#BEBEBE" points="382.655,810.001 382.608,809.92 382.563,809.999 296.108,959.822 296.211,960 468.006,960 
		468.562,960 468.608,959.92 468.655,960 469.006,960 469.211,960 469.108,959.822 	"/>
	<polygon fill="#797979" points="295.933,959.519 209.655,810 209.608,809.92 209.562,810 209.284,810.481 123.006,960 295.562,960 
		295.655,960 296.006,960 296.211,960 296.108,959.822 	"/>
	<polygon fill="#939393" points="469.211,960 469.006,960 468.655,960 491.736,1000 618.129,1000 641.211,960 	"/>
	<polygon fill="#939393" points="468.284,960.481 468.562,960 468.006,960 	"/>
	<polygon fill="#BEBEBE" points="641.608,959.92 641.562,960 618.48,1000 664.736,1000 641.655,960 	"/>
	<polygon fill="#797979" points="468.655,960 468.608,959.92 468.562,960 468.284,960.481 445.48,1000 491.736,1000 	"/>
	<polygon fill="#939393" points="989.654,960 1012.736,1000 1139.13,1000 1162.211,960 	"/>
	<polygon fill="#939393" points="989.006,960 989.108,960.178 989.284,960.482 989.563,960 989.211,960 	"/>
	<polygon fill="#BEBEBE" points="1162.608,959.92 1162.563,959.999 1139.48,1000 1185.736,1000 1162.655,960.001 	"/>
	<polygon fill="#797979" points="989.654,960 989.608,959.92 989.563,960 989.284,960.482 966.48,1000 1012.736,1000 	"/>
	<polygon fill="#939393" points="0,960 0,1000 99.129,1000 122.211,960 	"/>
	<polygon fill="#BEBEBE" points="122.608,959.92 122.563,959.999 99.48,1000 145.736,1000 122.655,960.001 	"/>
	<polygon fill="#797979" points="1500,1000 1500,976.571 1486.48,1000 	"/>
</g>
</svg>
