<?xml version="1.0" encoding="utf-8"?>
<!-- Generator: Adobe Illustrator 16.2.0, SVG Export Plug-In . SVG Version: 6.00 Build 0)  -->
<!DOCTYPE svg PUBLIC "-//W3C//DTD SVG 1.1//EN" "http://www.w3.org/Graphics/SVG/1.1/DTD/svg11.dtd">
<svg version="1.1" id="Layer_1" xmlns="http://www.w3.org/2000/svg" xmlns:xlink="http://www.w3.org/1999/xlink" x="0px" y="0px"
	 width="600px" height="600px" viewBox="0 0 600 600" enable-background="new 0 0 600 600" xml:space="preserve">
<path fill="#EBE5DB" d="M558.559,489.996c0,38.523-27.734,69.751-61.947,69.751H101.382c-34.212,0-61.947-31.228-61.947-69.751
	V204.017c0-38.523,27.734-69.079,61.947-69.079h395.229c34.213,0,61.947,30.556,61.947,69.079V489.996z"/>
<path fill="#65423A" d="M567.5,151.383c0-56.505-62.5-110.389-92.5-110.389H107.167c-29.999,0-74.073,57.192-74.073,113.697
	L32.5,240.038c0,56.504,516.547,10.249,516.547,10.249c30,0,14.953-33.087,14.953-89.591L567.5,151.383z"/>
<path fill="none" stroke="#000000" stroke-width="25" stroke-miterlimit="10" d="M567.5,448.592
	c0,65.656-53.252,118.908-118.908,118.908H151.383C85.726,567.5,32.5,514.248,32.5,448.592V151.383
	C32.5,85.726,85.726,32.5,151.383,32.5h297.208c65.656,0,118.908,53.226,118.908,118.883V448.592z"/>
<line fill="none" stroke="#000000" stroke-width="25" stroke-miterlimit="10" x1="290.582" y1="260.894" x2="558.069" y2="261.092"/>
<line fill="none" stroke="#000000" stroke-width="25" stroke-miterlimit="10" x1="295" y1="261.5" x2="27" y2="261.5"/>
<circle fill="#333333" stroke="#C7B299" stroke-width="15" stroke-miterlimit="10" cx="300.284" cy="300.285" r="139.588"/>
<rect x="410.5" y="82.5" fill="#4D4D4D" stroke="#000000" stroke-width="7" stroke-miterlimit="10" width="79" height="78"/>
<circle fill="#4D4D4D" stroke="#000000" stroke-width="12" stroke-miterlimit="10" cx="300.068" cy="300.501" r="82.11"/>
</svg>
