<?xml version="1.0" encoding="utf-8"?>
<!-- Generator: Adobe Illustrator 16.0.0, SVG Export Plug-In . SVG Version: 6.00 Build 0)  -->
<!DOCTYPE svg PUBLIC "-//W3C//DTD SVG 1.1//EN" "http://www.w3.org/Graphics/SVG/1.1/DTD/svg11.dtd">
<svg version="1.1" id="Layer_1" xmlns="http://www.w3.org/2000/svg" xmlns:xlink="http://www.w3.org/1999/xlink" x="0px" y="0px"
	 width="600px" height="600px" viewBox="0 0 600 600" enable-background="new 0 0 600 600" xml:space="preserve">
<path d="M310.971,420.14C149.327,523.359,19.578,433.633,20.473,294.513c0.722-112.178,96.563-158.788,143.922-158.14
	c100,1.37,124.657,88.356,159.589,146.781c24.452,40.898,51.493,127.492,143.959,132.972c83.311,4.937,80.137-76.822-0.425-87.781
	c-175.936-23.933-162.064-197.543,1.37-199.205c48.37-0.492,79.274,20.25,91.781,30.027l-8.886,49.759
	c-22.19-9.409-49.238-28.526-85.896-25.786c-83.702,6.256-92.214,82.18-1.795,91.78c148.37,15.754,156.178,195.297,3.425,195.433
	c-116.698,0.104-164.392-108.877-200.558-177.626c-48.599-92.383-59.415-94.025-101.513-97.851
	c-20.979-1.907-87.354,14.101-90.094,102.457c-3.638,117.31,122.676,144.697,204.47,72.861L310.971,420.14z"/>
</svg>
