<?xml version="1.0" encoding="utf-8"?>
<!-- Generator: Adobe Illustrator 16.2.0, SVG Export Plug-In . SVG Version: 6.00 Build 0)  -->
<!DOCTYPE svg PUBLIC "-//W3C//DTD SVG 1.1//EN" "http://www.w3.org/Graphics/SVG/1.1/DTD/svg11.dtd">
<svg version="1.1" id="Layer_1" xmlns="http://www.w3.org/2000/svg" xmlns:xlink="http://www.w3.org/1999/xlink" x="0px" y="0px"
	 width="709.465px" height="674.889px" viewBox="0 0 709.465 674.889" enable-background="new 0 0 709.465 674.889"
	 xml:space="preserve">
<rect x="15.032" y="604.389" fill="none" width="683" height="55"/>
<text transform="matrix(1 0 0 1 15.0322 655.5083)"><tspan x="0" y="0" fill="#FFFFFF" font-family="'MyriadPro-Bold'" font-size="72">SANTERI</tspan><tspan x="276.907" y="0" fill="#FFFFFF" font-family="'MyriadPro-Regular'" font-size="72">NOGELAINEN</tspan></text>
<polygon fill="#FFFFFF" points="602.837,277.179 627.587,301.929 363.387,566.129 338.647,541.379 339.667,540.359 549.937,125.569 
	109.387,566.129 84.647,541.379 603.007,23.019 627.747,47.759 627.717,47.789 628.417,48.149 419.247,460.779 "/>
<polygon fill="#FFFFFF" points="144.627,276.889 299.127,276.889 264.127,311.889 109.877,311.889 109.877,311.639 109.387,312.129 
	84.647,287.379 348.837,23.179 373.587,47.929 "/>
</svg>
