<?xml version="1.0" encoding="utf-8"?>
<!-- Generator: Adobe Illustrator 16.0.0, SVG Export Plug-In . SVG Version: 6.00 Build 0)  -->
<!DOCTYPE svg PUBLIC "-//W3C//DTD SVG 1.1//EN" "http://www.w3.org/Graphics/SVG/1.1/DTD/svg11.dtd">
<svg version="1.1" id="Layer_1" xmlns="http://www.w3.org/2000/svg" xmlns:xlink="http://www.w3.org/1999/xlink" x="0px" y="0px"
	 width="600px" height="600px" viewBox="0 0 600 600" enable-background="new 0 0 600 600" xml:space="preserve">
<path d="M575,465c0,60.751-49.249,110-110,110H135c-60.751,0-110-49.249-110-110V135C25,74.249,74.249,25,135,25h330
	c60.751,0,110,49.249,110,110V465z"/>
<path d="M-152,201.5c0,0.276-0.224,0.5-0.5,0.5h-2c-0.276,0-0.5-0.224-0.5-0.5l0,0c0-0.276,0.224-0.5,0.5-0.5h2
	C-152.224,201-152,201.224-152,201.5L-152,201.5z"/>
<path fill="#FFFFFF" d="M437.121,389.909c-3.271,8.264-15.151,26.516-15.151,26.516c-10.696,2.252-26.258-2.604-34.848,3.788
	c-8.305,6.18-41.743,49.241-87.122,49.241c-46.982,0-77.078-46.295-87.121-49.241c-12.537-3.679-12.793-1.699-34.849-3.788
	c0,0-9.591-23.881-15.151-26.516C156.547,386.908,125,378.545,125,378.545C254.574,299,161.175,299,140.151,280.061
	c-0.986-0.889-0.106-6.5,0-7.575c2.862-28.861,76.026,31.849,65.151-49.243c-6.95-51.836,42.398-94.697,94.697-94.697l0,0
	c52.3,0,100.176,42.685,94.697,94.697c-10.401,98.733,55.498,17.787,65.15,49.243c0,0,1.222,6.109,0,7.575
	C433.591,311.598,343.823,299,475,378.545C475,378.545,438.661,386.021,437.121,389.909z"/>
</svg>
