<?xml version="1.0" encoding="utf-8"?>
<!-- Generator: Adobe Illustrator 16.0.0, SVG Export Plug-In . SVG Version: 6.00 Build 0)  -->
<!DOCTYPE svg PUBLIC "-//W3C//DTD SVG 1.1//EN" "http://www.w3.org/Graphics/SVG/1.1/DTD/svg11.dtd">
<svg version="1.1" id="Layer_1" xmlns="http://www.w3.org/2000/svg" xmlns:xlink="http://www.w3.org/1999/xlink" x="0px" y="0px"
	 width="600px" height="600px" viewBox="0 0 600 600" enable-background="new 0 0 600 600" xml:space="preserve">
<circle cx="299.617" cy="300.247" r="275"/>
<polygon fill="#FFFFFF" points="450.562,271.356 233.56,428.235 185.271,379.947 345.768,167.247 "/>
<circle fill="#FFFFFF" cx="387.521" cy="229.795" r="100"/>
<circle fill="#FFFFFF" cx="212.795" cy="405.179" r="75"/>
<circle cx="387.795" cy="230.179" r="62.5"/>
<circle fill="#FFFFFF" cx="387.795" cy="230.179" r="47.5"/>
<circle cx="212.795" cy="405.179" r="50"/>
<path fill="#FFFFFF" d="M24.616,309.713l0.101-16.849l199.213,78.116c17.995,7.06,26.859,27.33,19.799,45.324l0,0
	c-7.059,17.995-27.37,26.86-45.364,19.8L33.97,371.609l-3.865-16.431c-5.489-28.343-3.175-8.479-5.489-28.343"/>
</svg>
