<?xml version="1.0" encoding="utf-8"?>
<!-- Generator: Adobe Illustrator 16.0.0, SVG Export Plug-In . SVG Version: 6.00 Build 0)  -->
<!DOCTYPE svg PUBLIC "-//W3C//DTD SVG 1.1//EN" "http://www.w3.org/Graphics/SVG/1.1/DTD/svg11.dtd">
<svg version="1.1" id="Layer_1" xmlns="http://www.w3.org/2000/svg" xmlns:xlink="http://www.w3.org/1999/xlink" x="0px" y="0px"
	 width="1500px" height="1000px" viewBox="0 0 1500 1000" enable-background="new 0 0 1500 1000" xml:space="preserve">
<rect fill="#FFFFFF" width="1499" height="1000"/>
<g>
	<path fill="none" d="M1212.479,1000h237.258L1499,914.629v-77.53l-85.391,147.981l-86.501-149.902l-0.176,0.305L1413.211,985
		h-172.556l-0.046,0.08l-0.046-0.08h-0.558l0.278-0.482L1154.006,835l86.278-149.518l-0.278-0.482h0.557l0.046-0.08l0.046,0.08
		h172.557l-86.277,149.519l0.175,0.304l86.5-149.902L1499,832.901v-76.53L1448.006,668L1499,579.629v-77.53l-85.391,147.981
		l-86.501-149.902l-0.176,0.305L1413.211,650h-172.556l-0.046,0.08l-0.046-0.08h-0.558l0.278-0.482L1154.006,500l86.278-149.518
		l-0.278-0.482h0.557l0.046-0.08l0.046,0.08h172.557l-86.277,149.519l0.175,0.304l86.5-149.902L1499,497.901v-74.798L1447.006,333
		L1499,242.896v-77.53l-86.391,149.714l-86.501-149.902l-0.176,0.304L1412.211,315h-172.556l-0.046,0.08l-0.046-0.08h-0.558
		l0.278-0.483L1153.006,165l86.278-149.518L1239.006,15h0.557l0.046-0.08l0.046,0.08h172.557l-86.278,149.519l0.176,0.304
		l86.5-149.902L1499,164.634V85.104L1449.891,0h-244.564l-83.717,145.08L1037.891,0h-0.351l83.671,145H948.655l-0.046,0.08
		l-0.046-0.08h-0.558l0.278-0.483L864.891,0H626.326l-83.716,145.08L458.891,0h-0.351l83.671,145H369.656l-0.046,0.08l-0.046-0.08
		h-0.557l0.279-0.483L285.891,0H42.326L0,73.351v76.063L77.284,15.481L77.006,15h0.556l0.046-0.08L77.655,15h172.556
		l-86.278,149.518l0.176,0.305l86.5-149.903L337.211,165l-86.602,150.08l-86.501-149.903l-0.176,0.305L250.211,315H77.656
		l-0.046,0.08L77.563,315h-0.557l0.278-0.482L0,180.586v72.332L46.211,333L0,413.083v73.063l78.284-135.665L78.006,350h0.556
		l0.046-0.08l0.046,0.08h172.557l-86.278,149.518l0.176,0.305l86.5-149.902L338.211,500l-86.602,150.08l-86.501-149.903
		l-0.176,0.305L251.211,650H78.656l-0.046,0.08L78.563,650h-0.557l0.278-0.482L0,513.853v72.332L47.211,668L0,749.816v71.331
		l78.284-135.666L78.006,685h0.556l0.046-0.08l0.046,0.08h172.556l-86.278,149.519l0.175,0.304l86.5-149.902L338.211,835
		l-86.602,150.08l-86.501-149.902l-0.176,0.305L251.211,985H78.656l-0.046,0.08L78.563,985h-0.557l0.278-0.482L0,848.853v72.332
		L45.48,1000h241.257l84.547-146.519L371.006,853h0.556l0.046-0.08l0.046,0.08h172.556l-84.825,147h0.351l84.871-147.08L629.48,1000
		h240.257l84.547-146.518L954.006,853h0.557l0.046-0.08l0.046,0.08h172.557l-84.824,147h0.351l84.871-147.08L1212.479,1000z
		 M953.284,183.482L953.006,183h0.557l0.046-0.08l0.046,0.08h172.557l-86.278,149.519l0.176,0.304l86.5-149.902L1213.211,333
		l-86.602,150.08l-86.501-149.902l-0.176,0.304L1126.211,483H953.655l-0.046,0.08l-0.046-0.08h-0.558l0.278-0.483L867.006,333
		L953.284,183.482z M836.211,650H663.656l-0.046,0.08l-0.046-0.08h-0.557l0.278-0.482L577.006,500l86.278-149.518L663.006,350h0.556
		l0.046-0.08l0.046,0.08h172.557l-86.278,149.518l0.176,0.305l86.5-149.902L923.211,500l-86.602,150.08l-86.501-149.903
		l-0.176,0.305L836.211,650z M662.006,15h0.556l0.046-0.08l0.046,0.08h172.556l-86.278,149.518l0.176,0.305l86.5-149.903
		L922.211,165l-86.602,150.08l-86.501-149.903l-0.176,0.305L835.211,315H662.656l-0.046,0.08l-0.046-0.08h-0.557l0.278-0.482
		L576.006,165l86.278-149.519L662.006,15z M284.006,333l86.278-149.519L370.006,183h0.556l0.046-0.08l0.046,0.08h172.556
		l-86.278,149.518l0.176,0.305l86.5-149.903L630.211,333l-86.602,150.08l-86.501-149.903l-0.176,0.305L543.211,483H370.656
		l-0.046,0.08l-0.046-0.08h-0.557l0.278-0.482L284.006,333z M458.108,668.178l-0.176,0.305L544.211,818H371.656l-0.046,0.08
		l-0.046-0.08h-0.557l0.278-0.482L285.006,668l86.278-149.519L371.006,518h0.556l0.046-0.08l0.046,0.08h172.556l-86.278,149.519
		l0.175,0.304l86.5-149.902L631.211,668l-86.602,150.08L458.108,668.178z M836.609,985.08l-86.501-149.902l-0.176,0.305L836.211,985
		H663.656l-0.046,0.08l-0.046-0.08h-0.557l0.278-0.482L577.006,835l86.278-149.519L663.006,685h0.556l0.046-0.08l0.046,0.08h172.556
		l-86.278,149.519l0.175,0.304l86.5-149.902L923.211,835L836.609,985.08z M954.655,818l-0.046,0.08l-0.046-0.08h-0.558l0.278-0.482
		L868.006,668l86.278-149.518L954.006,518h0.557l0.046-0.08l0.046,0.08h172.557l-86.277,149.519l0.175,0.304l86.5-149.902
		L1214.211,668l-86.602,150.08l-86.501-149.902l-0.176,0.305L1127.211,818H954.655z"/>
	<polygon fill="#939393" points="663.006,350 663.284,350.482 663.563,350 	"/>
	<polygon fill="#939393" points="836.211,350 663.654,350 749.933,499.518 	"/>
	<polygon fill="#939393" points="750.108,500.177 836.609,650.08 923.211,500 750.211,500 	"/>
	<polygon fill="#777777" points="663.609,650.08 663.656,650 663.563,650 	"/>
	<polygon fill="#777777" points="577.006,500 663.285,649.518 749.563,500 	"/>
	<polygon fill="#777777" points="750.211,500 750.006,500 749.654,500 749.933,500.482 750.108,500.177 	"/>
	<polygon fill="#818181" points="749.654,500 749.563,500 663.285,649.518 663.006,650 663.563,650 663.656,650 836.211,650 
		749.933,500.482 	"/>
	<polygon fill="#BEBEBE" points="923.211,500 836.608,349.92 750.108,499.823 750.211,500 	"/>
	<polygon fill="#797979" points="749.654,500 750.006,500 750.211,500 750.108,499.823 749.933,499.518 663.654,350 663.608,349.92 
		663.563,350 663.284,350.482 577.006,500 749.563,500 	"/>
	<polygon fill="#939393" points="663.006,685 663.284,685.481 663.562,685 	"/>
	<polygon fill="#939393" points="836.211,685 663.655,685 749.933,834.519 	"/>
	<polygon fill="#939393" points="750.108,835.178 836.609,985.08 923.211,835 750.211,835 	"/>
	<polygon fill="#777777" points="663.609,985.08 663.656,985 663.563,985 	"/>
	<polygon fill="#777777" points="577.006,835 663.285,984.518 749.562,835 	"/>
	<polygon fill="#777777" points="750.006,835 749.655,835 749.933,835.482 750.108,835.178 750.211,835 	"/>
	<polygon fill="#818181" points="749.655,835 749.562,835 663.285,984.518 663.006,985 663.563,985 663.656,985 836.211,985 
		749.933,835.482 	"/>
	<polygon fill="#BEBEBE" points="750.108,834.822 750.211,835 923.211,835 836.608,684.92 	"/>
	<polygon fill="#797979" points="749.655,835 750.006,835 750.211,835 750.108,834.822 749.933,834.519 663.655,685 663.608,684.92 
		663.562,685 663.284,685.481 577.006,835 749.562,835 	"/>
	<polygon fill="#939393" points="662.006,15 662.284,15.481 662.562,15 	"/>
	<polygon fill="#939393" points="835.211,15 662.655,15 748.933,164.518 	"/>
	<polygon fill="#939393" points="749.108,165.177 835.609,315.08 922.211,165 749.211,165 	"/>
	<polygon fill="#777777" points="576.006,165 662.285,314.518 748.562,165 	"/>
	<polygon fill="#777777" points="662.609,315.08 662.656,315 662.563,315 	"/>
	<polygon fill="#777777" points="749.006,165 748.655,165 748.933,165.482 749.108,165.177 749.211,165 	"/>
	<polygon fill="#818181" points="748.562,165 662.285,314.518 662.006,315 662.563,315 662.656,315 835.211,315 748.933,165.482 
		748.655,165 	"/>
	<polygon fill="#BEBEBE" points="922.211,165 835.608,14.92 749.108,164.823 749.211,165 	"/>
	<polygon fill="#797979" points="748.562,165 748.655,165 749.006,165 749.211,165 749.108,164.823 748.933,164.518 662.655,15 
		662.608,14.92 662.562,15 662.284,15.481 576.006,165 	"/>
	<polygon fill="#939393" points="1127.211,518 954.654,518 1040.934,667.519 	"/>
	<polygon fill="#939393" points="954.006,518 954.284,518.482 954.563,518 	"/>
	<polygon fill="#939393" points="1041.108,668.178 1127.609,818.08 1214.211,668 1041.211,668 	"/>
	<polygon fill="#777777" points="868.006,668 954.284,817.518 1040.563,668 	"/>
	<polygon fill="#777777" points="954.609,818.08 954.655,818 954.563,818 	"/>
	<polygon fill="#777777" points="1041.006,668 1040.654,668 1040.933,668.482 1041.108,668.178 1041.211,668 	"/>
	<polygon fill="#818181" points="1040.654,668 1040.563,668 954.284,817.518 954.006,818 954.563,818 954.655,818 1127.211,818 
		1040.933,668.482 	"/>
	<polygon fill="#BEBEBE" points="1214.211,668 1127.608,517.92 1041.108,667.822 1041.211,668 	"/>
	<polygon fill="#797979" points="1040.654,668 1041.006,668 1041.211,668 1041.108,667.822 1040.934,667.519 954.654,518 
		954.608,517.92 954.563,518 954.284,518.482 868.006,668 1040.563,668 	"/>
	<polygon fill="#939393" points="954.006,853 954.284,853.482 954.563,853 	"/>
	<polygon fill="#939393" points="954.654,853 1039.479,1000 1042.387,1000 1127.211,853 	"/>
	<polygon fill="#BEBEBE" points="1127.608,852.92 1042.737,1000 1212.479,1000 	"/>
	<polygon fill="#797979" points="954.608,852.92 954.563,853 954.284,853.482 869.737,1000 1039.479,1000 954.654,853 	"/>
	<polygon fill="#939393" points="953.006,183 953.284,183.482 953.563,183 	"/>
	<polygon fill="#939393" points="1126.211,183 953.654,183 1039.933,332.519 	"/>
	<polygon fill="#939393" points="1040.108,333.178 1126.609,483.08 1213.211,333 1040.211,333 	"/>
	<polygon fill="#777777" points="953.609,483.08 953.655,483 953.563,483 	"/>
	<polygon fill="#777777" points="867.006,333 953.284,482.517 1039.563,333 	"/>
	<polygon fill="#777777" points="1040.006,333 1039.654,333 1039.933,333.482 1040.108,333.178 1040.211,333 	"/>
	<polygon fill="#818181" points="1039.654,333 1039.563,333 953.284,482.517 953.006,483 953.563,483 953.655,483 1126.211,483 
		1039.933,333.482 	"/>
	<polygon fill="#BEBEBE" points="1213.211,333 1126.608,182.92 1040.108,332.822 1040.211,333 	"/>
	<polygon fill="#797979" points="1039.563,333 1039.654,333 1040.006,333 1040.211,333 1040.108,332.822 1039.933,332.519 
		953.654,183 953.608,182.92 953.563,183 953.284,183.482 867.006,333 	"/>
	<polygon fill="#939393" points="1240.006,350 1240.284,350.482 1240.563,350 	"/>
	<polygon fill="#939393" points="1413.211,350 1240.654,350 1326.934,499.519 	"/>
	<polygon fill="#939393" points="1327.108,500.178 1413.609,650.08 1499,502.099 1499,500 1327.211,500 	"/>
	<polygon fill="#777777" points="1154.006,500 1240.284,649.518 1326.563,500 	"/>
	<polygon fill="#777777" points="1240.609,650.08 1240.655,650 1240.563,650 	"/>
	<polygon fill="#777777" points="1327.006,500 1326.654,500 1326.933,500.482 1327.108,500.178 1327.211,500 	"/>
	<polygon fill="#818181" points="1326.654,500 1326.563,500 1240.284,649.518 1240.006,650 1240.563,650 1240.655,650 1413.211,650 
		1326.933,500.482 	"/>
	<polygon fill="#BEBEBE" points="1327.108,499.822 1327.211,500 1499,500 1499,497.901 1413.608,349.92 	"/>
	<polygon fill="#797979" points="1326.654,500 1327.006,500 1327.211,500 1327.108,499.822 1326.934,499.519 1240.654,350 
		1240.608,349.92 1240.563,350 1240.284,350.482 1154.006,500 1326.563,500 	"/>
	<polygon fill="#939393" points="1413.211,685 1240.654,685 1326.934,834.519 	"/>
	<polygon fill="#939393" points="1240.006,685 1240.284,685.482 1240.563,685 	"/>
	<polygon fill="#939393" points="1327.108,835.178 1413.609,985.08 1499,837.099 1499,835 1327.211,835 	"/>
	<polygon fill="#777777" points="1240.609,985.08 1240.655,985 1240.563,985 	"/>
	<polygon fill="#777777" points="1154.006,835 1240.284,984.518 1326.563,835 	"/>
	<polygon fill="#777777" points="1327.006,835 1326.654,835 1326.933,835.482 1327.108,835.178 1327.211,835 	"/>
	<polygon fill="#818181" points="1326.654,835 1326.563,835 1240.284,984.518 1240.006,985 1240.563,985 1240.655,985 1413.211,985 
		1326.933,835.482 	"/>
	<polygon fill="#BEBEBE" points="1327.108,834.822 1327.211,835 1499,835 1499,832.901 1413.608,684.92 	"/>
	<polygon fill="#797979" points="1326.654,835 1327.006,835 1327.211,835 1327.108,834.822 1326.934,834.519 1240.654,685 
		1240.608,684.92 1240.563,685 1240.284,685.482 1154.006,835 1326.563,835 	"/>
	<polygon fill="#939393" points="1239.006,15 1239.284,15.482 1239.563,15 	"/>
	<polygon fill="#939393" points="1412.211,15 1239.654,15 1325.933,164.519 	"/>
	<polygon fill="#939393" points="1326.108,165.178 1412.609,315.08 1499,165.366 1499,165 1326.211,165 	"/>
	<polygon fill="#777777" points="1239.609,315.08 1239.655,315 1239.563,315 	"/>
	<polygon fill="#777777" points="1153.006,165 1239.284,314.517 1325.563,165 	"/>
	<polygon fill="#777777" points="1326.006,165 1325.654,165 1325.933,165.482 1326.108,165.178 1326.211,165 	"/>
	<polygon fill="#818181" points="1325.654,165 1325.563,165 1239.284,314.517 1239.006,315 1239.563,315 1239.655,315 1412.211,315 
		1325.933,165.482 	"/>
	<polygon fill="#BEBEBE" points="1326.108,164.822 1326.211,165 1499,165 1499,164.634 1412.608,14.92 	"/>
	<polygon fill="#797979" points="1325.654,165 1326.006,165 1326.211,165 1326.108,164.822 1325.933,164.519 1239.654,15 
		1239.608,14.92 1239.563,15 1239.284,15.482 1153.006,165 1325.563,165 	"/>
	<polygon fill="#939393" points="544.211,518 371.655,518 457.933,667.519 	"/>
	<polygon fill="#939393" points="371.006,518 371.284,518.481 371.562,518 	"/>
	<polygon fill="#939393" points="458.211,668 458.108,668.178 544.609,818.08 631.211,668 	"/>
	<polygon fill="#777777" points="371.609,818.08 371.656,818 371.563,818 	"/>
	<polygon fill="#777777" points="285.006,668 371.285,817.518 457.562,668 	"/>
	<polygon fill="#777777" points="458.006,668 457.655,668 457.933,668.482 458.108,668.178 458.211,668 	"/>
	<polygon fill="#818181" points="457.655,668 457.562,668 371.285,817.518 371.006,818 371.563,818 371.656,818 544.211,818 
		457.933,668.482 	"/>
	<polygon fill="#BEBEBE" points="631.211,668 544.608,517.92 458.108,667.822 458.211,668 	"/>
	<polygon fill="#797979" points="457.655,668 458.006,668 458.211,668 458.108,667.822 457.933,667.519 371.655,518 371.608,517.92 
		371.562,518 371.284,518.481 285.006,668 457.562,668 	"/>
	<polygon fill="#939393" points="371.655,853 456.48,1000 459.386,1000 544.211,853 	"/>
	<polygon fill="#939393" points="371.006,853 371.284,853.481 371.562,853 	"/>
	<polygon fill="#BEBEBE" points="459.737,1000 629.48,1000 544.608,852.92 	"/>
	<polygon fill="#797979" points="371.608,852.92 371.562,853 371.284,853.481 286.737,1000 456.48,1000 371.655,853 	"/>
	<polygon fill="#939393" points="543.211,183 370.655,183 456.933,332.518 	"/>
	<polygon fill="#939393" points="370.006,183 370.284,183.481 370.562,183 	"/>
	<polygon fill="#939393" points="457.108,333.177 543.609,483.08 630.211,333 457.211,333 	"/>
	<polygon fill="#777777" points="456.562,333 284.006,333 370.285,482.518 	"/>
	<polygon fill="#777777" points="370.609,483.08 370.656,483 370.563,483 	"/>
	<polygon fill="#777777" points="457.006,333 456.655,333 456.933,333.482 457.108,333.177 457.211,333 	"/>
	<polygon fill="#818181" points="456.562,333 370.285,482.518 370.006,483 370.563,483 370.656,483 543.211,483 456.933,333.482 
		456.655,333 	"/>
	<polygon fill="#BEBEBE" points="630.211,333 543.608,182.92 457.108,332.823 457.211,333 	"/>
	<polygon fill="#797979" points="456.655,333 457.006,333 457.211,333 457.108,332.823 456.933,332.518 370.655,183 370.608,182.92 
		370.562,183 370.284,183.481 284.006,333 456.562,333 	"/>
	<polygon fill="#939393" points="251.211,350 78.654,350 164.933,499.518 	"/>
	<polygon fill="#939393" points="78.006,350 78.284,350.482 78.563,350 	"/>
	<polygon fill="#939393" points="165.108,500.177 251.609,650.08 338.211,500 165.211,500 	"/>
	<polygon fill="#777777" points="164.563,500 0,500 0,513.853 78.285,649.518 	"/>
	<polygon fill="#777777" points="78.609,650.08 78.656,650 78.563,650 	"/>
	<polygon fill="#777777" points="165.006,500 164.654,500 164.933,500.482 165.108,500.177 165.211,500 	"/>
	<polygon fill="#818181" points="164.654,500 164.563,500 78.285,649.518 78.006,650 78.563,650 78.656,650 251.211,650 
		164.933,500.482 	"/>
	<polygon fill="#BEBEBE" points="338.211,500 251.608,349.92 165.108,499.823 165.211,500 	"/>
	<polygon fill="#797979" points="164.654,500 165.006,500 165.211,500 165.108,499.823 164.933,499.518 78.654,350 78.608,349.92 
		78.563,350 78.284,350.482 0,486.147 0,500 164.563,500 	"/>
	<polygon fill="#939393" points="251.211,685 78.655,685 164.933,834.519 	"/>
	<polygon fill="#939393" points="78.006,685 78.284,685.481 78.562,685 	"/>
	<polygon fill="#939393" points="165.108,835.178 251.609,985.08 338.211,835 165.211,835 	"/>
	<polygon fill="#777777" points="164.562,835 0,835 0,848.853 78.285,984.518 	"/>
	<polygon fill="#777777" points="78.609,985.08 78.656,985 78.563,985 	"/>
	<polygon fill="#777777" points="165.006,835 164.655,835 164.933,835.482 165.108,835.178 165.211,835 	"/>
	<polygon fill="#818181" points="164.655,835 164.562,835 78.285,984.518 78.006,985 78.563,985 78.656,985 251.211,985 
		164.933,835.482 	"/>
	<polygon fill="#BEBEBE" points="338.211,835 251.608,684.92 165.108,834.822 165.211,835 	"/>
	<polygon fill="#797979" points="164.655,835 165.006,835 165.211,835 165.108,834.822 164.933,834.519 78.655,685 78.608,684.92 
		78.562,685 78.284,685.481 0,821.147 0,835 164.562,835 	"/>
	<polygon fill="#939393" points="77.006,15 77.284,15.481 77.562,15 	"/>
	<polygon fill="#939393" points="250.211,15 77.655,15 163.933,164.518 	"/>
	<polygon fill="#939393" points="164.108,165.177 250.609,315.08 337.211,165 164.211,165 	"/>
	<polygon fill="#777777" points="163.562,165 0,165 0,180.586 77.285,314.518 	"/>
	<polygon fill="#777777" points="77.609,315.08 77.656,315 77.563,315 	"/>
	<polygon fill="#777777" points="164.006,165 163.655,165 163.933,165.482 164.108,165.177 164.211,165 	"/>
	<polygon fill="#818181" points="163.562,165 77.285,314.518 77.006,315 77.563,315 77.656,315 250.211,315 163.933,165.482 
		163.655,165 	"/>
	<polygon fill="#BEBEBE" points="337.211,165 250.608,14.92 164.108,164.823 164.211,165 	"/>
	<polygon fill="#797979" points="163.655,165 164.006,165 164.211,165 164.108,164.823 163.933,164.518 77.655,15 77.608,14.92 
		77.562,15 77.284,15.481 0,149.414 0,165 163.562,165 	"/>
	<polygon fill="#939393" points="0,668 0,749.816 47.211,668 	"/>
	<polygon fill="#BEBEBE" points="0,586.185 0,668 47.211,668 	"/>
	<polygon fill="#BEBEBE" points="0,1000 45.48,1000 0,921.185 	"/>
	<polygon fill="#939393" points="0,333 0,413.083 46.211,333 	"/>
	<polygon fill="#BEBEBE" points="0,252.917 0,333 46.211,333 	"/>
	<polygon fill="#777777" points="1499,756.371 1499,668 1448.006,668 	"/>
	<polygon fill="#797979" points="1499,668 1499,579.629 1448.006,668 	"/>
	<polygon fill="#797979" points="1499,1000 1499,914.629 1449.737,1000 	"/>
	<polygon fill="#777777" points="1499,423.104 1499,333 1447.006,333 	"/>
	<polygon fill="#797979" points="1499,333 1499,242.896 1447.006,333 	"/>
	<polygon fill="#939393" points="1205.326,0 1037.891,0 1121.609,145.08 	"/>
	<polygon fill="#777777" points="948.609,145.08 948.655,145 948.563,145 	"/>
	<polygon fill="#777777" points="1031.677,0 864.891,0 948.284,144.517 	"/>
	<polygon fill="#818181" points="948.006,145 948.563,145 948.655,145 1121.211,145 1037.54,0 1031.677,0 948.284,144.517 	"/>
	<polygon fill="#777777" points="1499,0 1449.891,0 1499,85.104 	"/>
	<polygon fill="#939393" points="626.326,0 458.891,0 542.609,145.08 	"/>
	<polygon fill="#777777" points="452.677,0 285.891,0 369.285,144.517 	"/>
	<polygon fill="#777777" points="369.609,145.08 369.656,145 369.563,145 	"/>
	<polygon fill="#818181" points="369.006,145 369.563,145 369.656,145 542.211,145 458.54,0 452.677,0 369.285,144.517 	"/>
	<polygon fill="#939393" points="0,0 0,73.351 42.326,0 	"/>
</g>
</svg>
