<?xml version="1.0" encoding="utf-8"?>
<!-- Generator: Adobe Illustrator 16.0.0, SVG Export Plug-In . SVG Version: 6.00 Build 0)  -->
<!DOCTYPE svg PUBLIC "-//W3C//DTD SVG 1.1//EN" "http://www.w3.org/Graphics/SVG/1.1/DTD/svg11.dtd">
<svg version="1.1" id="Layer_1" xmlns="http://www.w3.org/2000/svg" xmlns:xlink="http://www.w3.org/1999/xlink" x="0px" y="0px"
	 width="600px" height="600px" viewBox="0 0 600 600" enable-background="new 0 0 600 600" xml:space="preserve">
<path d="M574,465c0,60.751-49.249,110-110,110H134c-60.751,0-110-49.249-110-110V135C24,74.249,73.249,25,134,25h330
	c60.751,0,110,49.249,110,110V465z"/>
<path fill="#FFFFFF" d="M550,450c0,55.229-44.771,100-100,100H150c-55.229,0-100-44.771-100-100V150C50,94.771,94.771,50,150,50h300
	c55.229,0,100,44.771,100,100V450z"/>
<circle cx="300.246" cy="299.932" r="187.5"/>
<circle fill="#FFFFFF" cx="299.246" cy="300.932" r="150"/>
<polygon points="350,138 250,138 250,138 300,38 350,138 "/>
<polygon points="462,351 462,251 462,251 562,301 462,351 "/>
<polygon points="250,463 350,463 350,463 300,563 250,463 "/>
<polygon points="137,251 137,351 137,351 37,301 137,251 "/>
<polygon points="444,191.355 408.645,156 408.645,156 461.678,138.322 444,191.355 "/>
<polygon points="190.354,156.001 154.999,191.356 154.999,191.356 137.321,138.323 190.354,156.001 "/>
<polygon points="408.646,445.001 444.001,409.646 444.001,409.646 461.679,462.679 408.646,445.001 "/>
<polygon points="154,410.646 189.356,446.002 189.356,446.002 136.323,463.68 154,410.646 "/>
<line fill="none" stroke="#000000" stroke-width="25" stroke-miterlimit="10" x1="37" y1="175" x2="175" y2="38"/>
<line fill="none" stroke="#000000" stroke-width="25" stroke-miterlimit="10" x1="425" y1="563" x2="562" y2="425"/>
<path d="M327.056,302.795c-15.367,15.667-37.852,27.519-58.159,25.41c-34.671-3.6-68.486-21.301-68.486-55.547
	c0-36.67,35.41-79.993,110.409-71.233c42.215,4.931,94.984,45.206,89.146,113.575c-2.169,25.4-31.506,80.487-137.855,84.37
	c-7.401,0.271-4.06-13.699-4.06-13.699c76.428-5.217,102.795-42.803,104.727-72.815c1.221-18.966-10.181-62.056-62.589-66.478
	c-32.474-2.74-51.068,6.417-53.503,29.704c-1.577,15.072,18.057,25.025,24.354,26.027c4.022,0.64,26.346-0.739,38.475-12.329
	L327.056,302.795z"/>
</svg>
