<?xml version="1.0" encoding="utf-8"?>
<!-- Generator: Adobe Illustrator 16.0.0, SVG Export Plug-In . SVG Version: 6.00 Build 0)  -->
<!DOCTYPE svg PUBLIC "-//W3C//DTD SVG 1.1//EN" "http://www.w3.org/Graphics/SVG/1.1/DTD/svg11.dtd">
<svg version="1.1" id="Layer_1" xmlns="http://www.w3.org/2000/svg" xmlns:xlink="http://www.w3.org/1999/xlink" x="0px" y="0px"
	 width="600px" height="600px" viewBox="0 0 600 600" enable-background="new 0 0 600 600" xml:space="preserve">
<ellipse cx="498.196" cy="354.708" rx="77.481" ry="82.576"/>
<ellipse cx="395.15" cy="272.658" rx="103.308" ry="110.105"/>
<rect x="292" y="263" width="205" height="174"/>
<path d="M285,422.176c0,8.158-4.974,14.772-11.5,14.772l0,0c-6.526,0-11.5-6.614-11.5-14.772V244.904
	c0-8.159,4.974-14.773,11.5-14.773l0,0c6.526,0,11.5,6.614,11.5,14.773V422.176z"/>
<path d="M256,422.176c0,8.158-5.474,14.772-12,14.772l0,0c-6.526,0-12-6.614-12-14.772V215.358c0-8.159,5.474-14.773,12-14.773l0,0
	c6.526,0,12,6.614,12,14.773V422.176z"/>
<path d="M226,420.994c0,8.158-4.974,14.772-11.5,14.772l0,0c-6.526,0-11.5-6.614-11.5-14.772V202.358
	c0-8.159,4.974-14.772,11.5-14.772l0,0c6.526,0,11.5,6.614,11.5,14.772V420.994z"/>
<path d="M197,422.176c0,8.158-5.474,14.772-12,14.772l0,0c-6.526,0-12-6.614-12-14.772V215.358c0-8.159,5.474-14.773,12-14.773l0,0
	c6.526,0,12,6.614,12,14.773V422.176z"/>
<path d="M167,420.994c0,8.158-4.974,14.772-11.5,14.772l0,0c-6.526,0-11.5-6.614-11.5-14.772V243.722
	c0-8.158,4.974-14.772,11.5-14.772l0,0c6.526,0,11.5,6.614,11.5,14.772V420.994z"/>
<path d="M138,420.994c0,8.158-5.474,14.772-12,14.772l0,0c-6.526,0-12-6.614-12-14.772V302.813c0-8.158,5.474-14.772,12-14.772l0,0
	c6.526,0,12,6.614,12,14.772V420.994z"/>
<path d="M108,422.176c0,8.158-5.474,14.772-12,14.772l0,0c-6.526,0-12-6.614-12-14.772v-130c0-8.158,5.474-14.772,12-14.772l0,0
	c6.526,0,12,6.614,12,14.772V422.176z"/>
<path d="M79,420.994c0,8.158-5.474,14.772-12,14.772l0,0c-6.526,0-12-6.614-12-14.772V302.813c0-8.158,5.474-14.772,12-14.772l0,0
	c6.526,0,12,6.614,12,14.772V420.994z"/>
<path d="M49,393.417c0,8.704-5.474,15.759-12,15.759l0,0c-6.526,0-12-7.055-12-15.759v-63.028c0-8.703,5.474-15.758,12-15.758l0,0
	c6.526,0,12,7.055,12,15.758V393.417z"/>
</svg>
