<?xml version="1.0" encoding="utf-8"?>
<!-- Generator: Adobe Illustrator 16.0.0, SVG Export Plug-In . SVG Version: 6.00 Build 0)  -->
<!DOCTYPE svg PUBLIC "-//W3C//DTD SVG 1.1//EN" "http://www.w3.org/Graphics/SVG/1.1/DTD/svg11.dtd">
<svg version="1.1" id="Layer_1" xmlns="http://www.w3.org/2000/svg" xmlns:xlink="http://www.w3.org/1999/xlink" x="0px" y="0px"
	 width="600px" height="600px" viewBox="0 0 600 600" enable-background="new 0 0 600 600" xml:space="preserve">
<g>
	<g>
		<path fill="#FFFFFF" stroke="#000000" stroke-width="10" stroke-miterlimit="10" d="M572.986,298.672
			c0-152.002-122.998-275-275-275s-275,122.999-275,275s122.998,275,275,275S572.986,450.674,572.986,298.672z"/>
	</g>
	<g>
		<line fill="#FFFFFF" stroke="#000000" stroke-width="10" stroke-miterlimit="10" x1="298" y1="299" x2="298" y2="574"/>
		
			<line fill="#FFFFFF" stroke="#000000" stroke-width="10" stroke-miterlimit="10" x1="297.986" y1="298.672" x2="363.782" y2="565.615"/>
		
			<line fill="#FFFFFF" stroke="#000000" stroke-width="10" stroke-miterlimit="10" x1="297.986" y1="298.672" x2="425.818" y2="542.116"/>
		
			<line fill="#FFFFFF" stroke="#000000" stroke-width="10" stroke-miterlimit="10" x1="297.986" y1="298.672" x2="480.335" y2="504.519"/>
		
			<line fill="#FFFFFF" stroke="#000000" stroke-width="10" stroke-miterlimit="10" x1="297.986" y1="298.672" x2="524.244" y2="454.836"/>
		
			<line fill="#FFFFFF" stroke="#000000" stroke-width="10" stroke-miterlimit="10" x1="297.986" y1="298.672" x2="555.127" y2="396.156"/>
		
			<line fill="#FFFFFF" stroke="#000000" stroke-width="10" stroke-miterlimit="10" x1="297.986" y1="298.672" x2="570.973" y2="331.838"/>
		
			<line fill="#FFFFFF" stroke="#000000" stroke-width="10" stroke-miterlimit="10" x1="297.986" y1="298.672" x2="570.973" y2="265.505"/>
		
			<line fill="#FFFFFF" stroke="#000000" stroke-width="10" stroke-miterlimit="10" x1="297.986" y1="298.672" x2="555.127" y2="201.186"/>
		
			<line fill="#FFFFFF" stroke="#000000" stroke-width="10" stroke-miterlimit="10" x1="297.986" y1="298.672" x2="524.244" y2="142.507"/>
		
			<line fill="#FFFFFF" stroke="#000000" stroke-width="10" stroke-miterlimit="10" x1="297.986" y1="298.672" x2="480.335" y2="92.824"/>
		
			<line fill="#FFFFFF" stroke="#000000" stroke-width="10" stroke-miterlimit="10" x1="297.986" y1="298.672" x2="425.818" y2="55.227"/>
		
			<line fill="#FFFFFF" stroke="#000000" stroke-width="10" stroke-miterlimit="10" x1="297.986" y1="298.672" x2="363.782" y2="31.728"/>
		<line fill="#FFFFFF" stroke="#000000" stroke-width="10" stroke-miterlimit="10" x1="298" y1="299" x2="298" y2="24"/>
		
			<line fill="#FFFFFF" stroke="#000000" stroke-width="10" stroke-miterlimit="10" x1="297.986" y1="298.672" x2="232.19" y2="31.728"/>
		
			<line fill="#FFFFFF" stroke="#000000" stroke-width="10" stroke-miterlimit="10" x1="297.986" y1="298.672" x2="170.154" y2="55.227"/>
		
			<line fill="#FFFFFF" stroke="#000000" stroke-width="10" stroke-miterlimit="10" x1="297.986" y1="298.672" x2="115.638" y2="92.824"/>
		
			<line fill="#FFFFFF" stroke="#000000" stroke-width="10" stroke-miterlimit="10" x1="297.986" y1="298.672" x2="71.729" y2="142.507"/>
		
			<line fill="#FFFFFF" stroke="#000000" stroke-width="10" stroke-miterlimit="10" x1="297.986" y1="298.672" x2="40.845" y2="201.186"/>
		
			<line fill="#FFFFFF" stroke="#000000" stroke-width="10" stroke-miterlimit="10" x1="297.986" y1="298.672" x2="25" y2="265.505"/>
		
			<line fill="#FFFFFF" stroke="#000000" stroke-width="10" stroke-miterlimit="10" x1="297.986" y1="298.672" x2="25" y2="331.838"/>
		
			<line fill="#FFFFFF" stroke="#000000" stroke-width="10" stroke-miterlimit="10" x1="297.986" y1="298.672" x2="40.845" y2="396.156"/>
		
			<line fill="#FFFFFF" stroke="#000000" stroke-width="10" stroke-miterlimit="10" x1="297.986" y1="298.672" x2="71.729" y2="454.836"/>
		
			<line fill="#FFFFFF" stroke="#000000" stroke-width="10" stroke-miterlimit="10" x1="297.986" y1="298.672" x2="115.638" y2="504.519"/>
		
			<line fill="#FFFFFF" stroke="#000000" stroke-width="10" stroke-miterlimit="10" x1="297.986" y1="298.672" x2="170.154" y2="542.116"/>
		
			<line fill="#FFFFFF" stroke="#000000" stroke-width="10" stroke-miterlimit="10" x1="297.986" y1="298.672" x2="232.19" y2="565.615"/>
	</g>
</g>
<g>
	<g>
		<path fill="#FFFFFF" stroke="#000000" stroke-width="10" stroke-miterlimit="10" d="M522.486,298.753
			c0-124.297-100.635-224.876-225-224.876s-225,100.58-225,224.876c0,124.298,100.635,224.877,225,224.877
			S522.486,423.051,522.486,298.753z"/>
	</g>
	<g>
		<line fill="#FFFFFF" stroke="#000000" stroke-width="10" stroke-miterlimit="10" x1="297" y1="299" x2="297" y2="523"/>
		
			<line fill="#FFFFFF" stroke="#000000" stroke-width="10" stroke-miterlimit="10" x1="297.486" y1="298.753" x2="395.155" y2="501.34"/>
		
			<line fill="#FFFFFF" stroke="#000000" stroke-width="10" stroke-miterlimit="10" x1="297.486" y1="298.753" x2="473.378" y2="438.972"/>
		
			<line fill="#FFFFFF" stroke="#000000" stroke-width="10" stroke-miterlimit="10" x1="297.486" y1="298.753" x2="516.884" y2="348.823"/>
		
			<line fill="#FFFFFF" stroke="#000000" stroke-width="10" stroke-miterlimit="10" x1="297.486" y1="298.753" x2="516.884" y2="248.683"/>
		
			<line fill="#FFFFFF" stroke="#000000" stroke-width="10" stroke-miterlimit="10" x1="297.486" y1="298.753" x2="473.378" y2="158.535"/>
		
			<line fill="#FFFFFF" stroke="#000000" stroke-width="10" stroke-miterlimit="10" x1="297.486" y1="298.753" x2="395.155" y2="96.167"/>
		<line fill="#FFFFFF" stroke="#000000" stroke-width="10" stroke-miterlimit="10" x1="297" y1="299" x2="297" y2="74"/>
		
			<line fill="#FFFFFF" stroke="#000000" stroke-width="10" stroke-miterlimit="10" x1="297.486" y1="298.753" x2="199.818" y2="96.167"/>
		
			<line fill="#FFFFFF" stroke="#000000" stroke-width="10" stroke-miterlimit="10" x1="297.486" y1="298.753" x2="121.595" y2="158.535"/>
		
			<line fill="#FFFFFF" stroke="#000000" stroke-width="10" stroke-miterlimit="10" x1="297.486" y1="298.753" x2="78.089" y2="248.683"/>
		
			<line fill="#FFFFFF" stroke="#000000" stroke-width="10" stroke-miterlimit="10" x1="297.486" y1="298.753" x2="78.089" y2="348.823"/>
		
			<line fill="#FFFFFF" stroke="#000000" stroke-width="10" stroke-miterlimit="10" x1="297.486" y1="298.753" x2="121.595" y2="438.972"/>
		
			<line fill="#FFFFFF" stroke="#000000" stroke-width="10" stroke-miterlimit="10" x1="297.486" y1="298.753" x2="199.818" y2="501.34"/>
	</g>
</g>
<circle fill="#FFFFFF" stroke="#000000" stroke-width="10" stroke-miterlimit="10" cx="298.466" cy="298.507" r="175"/>
</svg>
